LibreBaskerville-Regular.ufo
<glyph name="numbersign" format="1">
  <advance width="666"/>
  <unicode hex="0023"/>
  <outline>
    <contour>
      <point x="598" y="305" type="line"/>
      <point x="461" y="305" type="line"/>
      <point x="484" y="475" type="line"/>
      <point x="619" y="475" type="line"/>
      <point x="627" y="525" type="line"/>
      <point x="493" y="525" type="line"/>
      <point x="527" y="770" type="line"/>
      <point x="467" y="770" type="line"/>
      <point x="433" y="525" type="line"/>
      <point x="282" y="525" type="line"/>
      <point x="317" y="770" type="line"/>
      <point x="257" y="770" type="line"/>
      <point x="222" y="525" type="line"/>
      <point x="78" y="525" type="line"/>
      <point x="70" y="475" type="line"/>
      <point x="213" y="475" type="line"/>
      <point x="189" y="305" type="line"/>
      <point x="47" y="305" type="line"/>
      <point x="39" y="255" type="line"/>
      <point x="179" y="255" type="line"/>
      <point x="141" y="0" type="line"/>
      <point x="201" y="0" type="line"/>
      <point x="239" y="255" type="line"/>
      <point x="390" y="255" type="line"/>
      <point x="355" y="0" type="line"/>
      <point x="414" y="0" type="line"/>
      <point x="451" y="255" type="line"/>
      <point x="590" y="255" type="line"/>
    </contour>
    <contour>
      <point x="423" y="475" type="line"/>
      <point x="400" y="305" type="line"/>
      <point x="249" y="305" type="line"/>
      <point x="273" y="475" type="line"/>
    </contour>
  </outline>
</glyph>
<glyph name="dollar" format="1">
  <advance width="622"/>
  <unicode hex="0024"/>
  <outline>
    <contour>
      <point x="288" y="900" type="line"/>
      <point x="288" y="779" type="line"/>
      <point x="164" y="771"/>
      <point x="82" y="688"/>
      <point x="82" y="568" type="curve" smooth="yes"/>
      <point x="82" y="432"/>
      <point x="186" y="383"/>
      <point x="288" y="341" type="curve"/>
      <point x="288" y="41" type="line"/>
      <point x="196" y="44"/>
      <point x="165" y="84"/>
      <point x="154" y="126" type="curve" smooth="yes"/>
      <point x="145" y="159"/>
      <point x="138" y="230"/>
      <point x="87" y="230" type="curve" smooth="yes"/>
      <point x="62" y="230"/>
      <point x="38" y="213"/>
      <point x="38" y="168" type="curve" smooth="yes"/>
      <point x="38" y="67"/>
      <point x="155" y="-3"/>
      <point x="288" y="-9" type="curve"/>
      <point x="288" y="-170" type="line"/>
      <point x="343" y="-170" type="line"/>
      <point x="343" y="-8" type="line"/>
      <point x="482" y="4"/>
      <point x="578" y="91"/>
      <point x="578" y="217" type="curve" smooth="yes"/>
      <point x="578" y="315"/>
      <point x="518" y="379"/>
      <point x="343" y="455" type="curve"/>
      <point x="343" y="731" type="line"/>
      <point x="479" y="716"/>
      <point x="411" y="570"/>
      <point x="499" y="570" type="curve" smooth="yes"/>
      <point x="531" y="570"/>
      <point x="551" y="590"/>
      <point x="551" y="624" type="curve" smooth="yes"/>
      <point x="551" y="698"/>
      <point x="456" y="767"/>
      <point x="343" y="778" type="curve"/>
      <point x="343" y="900" type="line"/>
    </contour>
    <contour>
      <point x="474" y="169" type="curve" smooth="yes"/>
      <point x="474" y="101"/>
      <point x="430" y="54"/>
      <point x="343" y="43" type="curve"/>
      <point x="343" y="317" type="line"/>
      <point x="415" y="285"/>
      <point x="474" y="247"/>
    </contour>
    <contour>
      <point x="176" y="618" type="curve" smooth="yes"/>
      <point x="176" y="679"/>
      <point x="219" y="720"/>
      <point x="288" y="730" type="curve"/>
      <point x="288" y="479" type="line"/>
      <point x="210" y="518"/>
      <point x="176" y="563"/>
    </contour>
  </outline>
</glyph>
<glyph name="percent" format="1">
  <advance width="671"/>
  <unicode hex="0025"/>
  <outline>
    <contour>
      <point x="636" y="770" type="line"/>
      <point x="588" y="770" type="line"/>
      <point x="35" y="0" type="line"/>
      <point x="92" y="0" type="line"/>
    </contour>
    <component base="zerosuperior" xOffset="45"/>
    <component base="zeroinferior" xOffset="316"/>
  </outline>
</glyph>
<glyph name="ampersand" format="1">
  <advance width="878"/>
  <unicode hex="0026"/>
  <outline>
    <contour>
      <point x="347" y="458" type="curve"/>
      <point x="314" y="505"/>
      <point x="296" y="560"/>
      <point x="296" y="618" type="curve" smooth="yes"/>
      <point x="296" y="684"/>
      <point x="319" y="719"/>
      <point x="362" y="719" type="curve" smooth="yes"/>
      <point x="409" y="719"/>
      <point x="439" y="679"/>
      <point x="439" y="617" type="curve" smooth="yes"/>
      <point x="439" y="557"/>
      <point x="410" y="507"/>
    </contour>
    <contour>
      <point x="465" y="133" type="line"/>
      <point x="408" y="83"/>
      <point x="339" y="53"/>
      <point x="284" y="53" type="curve" smooth="yes"/>
      <point x="210" y="53"/>
      <point x="157" y="106"/>
      <point x="157" y="179" type="curve" smooth="yes"/>
      <point x="157" y="248"/>
      <point x="206" y="316"/>
      <point x="290" y="364" type="curve"/>
    </contour>
    <contour>
      <point x="375" y="420" type="line"/>
      <point x="486" y="496"/>
      <point x="532" y="557"/>
      <point x="532" y="631" type="curve" smooth="yes"/>
      <point x="532" y="718"/>
      <point x="467" y="780"/>
      <point x="376" y="780" type="curve" smooth="yes"/>
      <point x="273" y="780"/>
      <point x="202" y="699"/>
      <point x="202" y="582" type="curve" smooth="yes"/>
      <point x="202" y="522"/>
      <point x="220" y="470"/>
      <point x="263" y="408" type="curve"/>
      <point x="105" y="331"/>
      <point x="36" y="257"/>
      <point x="36" y="167" type="curve" smooth="yes"/>
      <point x="36" y="65"/>
      <point x="125" y="-10"/>
      <point x="247" y="-10" type="curve" smooth="yes"/>
      <point x="337" y="-10"/>
      <point x="430" y="31"/>
      <point x="496" y="100" type="curve"/>
      <point x="579" y="18"/>
      <point x="629" y="-10"/>
      <point x="695" y="-10" type="curve" smooth="yes"/>
      <point x="776" y="-10"/>
      <point x="829" y="31"/>
      <point x="843" y="105" type="curve"/>
      <point x="818" y="112" type="line"/>
      <point x="796" y="67"/>
      <point x="780" y="55"/>
      <point x="745" y="55" type="curve" smooth="yes"/>
      <point x="685" y="55"/>
      <point x="623" y="95"/>
      <point x="567" y="171" type="curve"/>
      <point x="709" y="379" type="line" smooth="yes"/>
      <point x="737" y="421"/>
      <point x="759" y="432"/>
      <point x="817" y="432" type="curve"/>
      <point x="817" y="467" type="line"/>
      <point x="587" y="467" type="line"/>
      <point x="587" y="432" type="line"/>
      <point x="630" y="432"/>
      <point x="648" y="423"/>
      <point x="648" y="402" type="curve" smooth="yes"/>
      <point x="648" y="367"/>
      <point x="602" y="288"/>
      <point x="537" y="209" type="curve"/>
    </contour>
  </outline>
</glyph>
<glyph name="parenleft" format="1">
  <advance width="332"/>
  <unicode hex="0028"/>
  <outline>
    <contour>
      <point x="281" y="831" type="line"/>
      <point x="127" y="677"/>
      <point x="47" y="503"/>
      <point x="47" y="323" type="curve" smooth="yes"/>
      <point x="47" y="139"/>
      <point x="130" y="-39"/>
      <point x="289" y="-194" type="curve"/>
      <point x="320" y="-166" type="line"/>
      <point x="197" y="-29"/>
      <point x="147" y="120"/>
      <point x="147" y="340" type="curve" smooth="yes"/>
      <point x="147" y="521"/>
      <point x="181" y="626"/>
      <point x="312" y="803" type="curve"/>
    </contour>
  </outline>
</glyph>
<glyph name="plus" format="1">
  <advance width="550"/>
  <unicode hex="002B"/>
  <outline>
    <contour>
      <point x="301" y="104" type="line"/>
      <point x="301" y="313" type="line"/>
      <point x="509" y="313" type="line"/>
      <point x="509" y="363" type="line"/>
      <point x="301" y="363" type="line"/>
      <point x="301" y="572" type="line"/>
      <point x="249" y="572" type="line"/>
      <point x="249" y="363" type="line"/>
      <point x="41" y="363" type="line"/>
      <point x="41" y="313" type="line"/>
      <point x="249" y="313" type="line"/>
      <point x="249" y="104" type="line"/>
    </contour>
  </outline>
</glyph>
<glyph name="comma" format="1">
  <advance width="273"/>
  <unicode hex="002C"/>
  <outline>
    <contour>
      <point x="72" y="-175" type="line"/>
      <point x="172" y="-103"/>
      <point x="206" y="-53"/>
      <point x="206" y="21" type="curve" smooth="yes"/>
      <point x="206" y="86"/>
      <point x="181" y="121"/>
      <point x="134" y="121" type="curve" smooth="yes"/>
      <point x="94" y="121"/>
      <point x="67" y="96"/>
      <point x="67" y="59" type="curve" smooth="yes"/>
      <point x="67" y="24"/>
      <point x="89" y="0"/>
      <point x="119" y="0" type="curve" smooth="yes"/>
      <point x="130" y="0"/>
      <point x="141" y="3"/>
      <point x="149" y="8" type="curve"/>
      <point x="149" y="-49"/>
      <point x="120" y="-93"/>
      <point x="49" y="-143" type="curve"/>
    </contour>
  </outline>
</glyph>
<glyph name="hyphen" format="1">
  <advance width="463"/>
  <unicode hex="002D"/>
  <outline>
    <contour>
      <point x="386" y="248" type="line"/>
      <point x="386" y="331" type="line"/>
      <point x="77" y="331" type="line"/>
      <point x="77" y="248" type="line"/>
    </contour>
  </outline>
</glyph>
<glyph name="slash" format="1">
  <advance width="460"/>
  <unicode hex="002F"/>
  <outline>
    <contour>
      <point x="431" y="770" type="line"/>
      <point x="382" y="770" type="line"/>
      <point x="29" y="0" type="line"/>
      <point x="87" y="0" type="line"/>
    </contour>
  </outline>
</glyph>
<glyph name="two" format="1">
  <advance width="616"/>
  <unicode hex="0032"/>
  <outline>
    <contour>
      <point x="195" y="103" type="line"/>
      <point x="389" y="247"/>
      <point x="547" y="399"/>
      <point x="547" y="564" type="curve" smooth="yes"/>
      <point x="547" y="691"/>
      <point x="448" y="781"/>
      <point x="307" y="781" type="curve" smooth="yes"/>
      <point x="165" y="781"/>
      <point x="59" y="692"/>
      <point x="59" y="573" type="curve" smooth="yes"/>
      <point x="59" y="486"/>
      <point x="114" y="423"/>
      <point x="188" y="423" type="curve" smooth="yes"/>
      <point x="229" y="423"/>
      <point x="260" y="444"/>
      <point x="266" y="476" type="curve"/>
      <point x="199" y="476"/>
      <point x="156" y="522"/>
      <point x="156" y="594" type="curve" smooth="yes"/>
      <point x="156" y="676"/>
      <point x="212" y="734"/>
      <point x="291" y="734" type="curve" smooth="yes"/>
      <point x="374" y="734"/>
      <point x="427" y="669"/>
      <point x="427" y="566" type="curve" smooth="yes"/>
      <point x="427" y="426"/>
      <point x="355" y="305"/>
      <point x="50" y="33" type="curve"/>
      <point x="50" y="0" type="line"/>
      <point x="515" y="0" type="line"/>
      <point x="553" y="213" type="line"/>
      <point x="516" y="213" type="line"/>
      <point x="488" y="119"/>
      <point x="459" y="98"/>
      <point x="395" y="98" type="curve" smooth="yes"/>
      <point x="196" y="98" type="line"/>
    </contour>
  </outline>
</glyph>
<glyph name="three" format="1">
  <advance width="616"/>
  <unicode hex="0033"/>
  <outline>
    <contour>
      <point x="429" y="214" type="curve" smooth="yes"/>
      <point x="429" y="324"/>
      <point x="382" y="388"/>
      <point x="301" y="388" type="curve"/>
      <point x="281" y="378"/>
      <point x="254" y="370"/>
      <point x="234" y="370" type="curve" smooth="yes"/>
      <point x="207" y="370"/>
      <point x="188" y="384"/>
      <point x="188" y="404" type="curve" smooth="yes"/>
      <point x="188" y="422"/>
      <point x="205" y="432"/>
      <point x="232" y="432" type="curve" smooth="yes"/>
      <point x="249" y="432"/>
      <point x="273" y="428"/>
      <point x="293" y="421" type="curve"/>
      <point x="364" y="421"/>
      <point x="412" y="491"/>
      <point x="412" y="597" type="curve" smooth="yes"/>
      <point x="412" y="692"/>
      <point x="374" y="737"/>
      <point x="294" y="737" type="curve" smooth="yes"/>
      <point x="224" y="737"/>
      <point x="180" y="703"/>
      <point x="180" y="647" type="curve" smooth="yes"/>
      <point x="180" y="602"/>
      <point x="209" y="571"/>
      <point x="252" y="571" type="curve"/>
      <point x="246" y="549"/>
      <point x="217" y="533"/>
      <point x="182" y="533" type="curve" smooth="yes"/>
      <point x="124" y="533"/>
      <point x="80" y="579"/>
      <point x="80" y="639" type="curve" smooth="yes"/>
      <point x="80" y="724"/>
      <point x="166" y="780"/>
      <point x="294" y="780" type="curve" smooth="yes"/>
      <point x="438" y="780"/>
      <point x="532" y="709"/>
      <point x="532" y="602" type="curve" smooth="yes"/>
      <point x="532" y="512"/>
      <point x="465" y="438"/>
      <point x="382" y="417" type="curve"/>
      <point x="382" y="411" type="line"/>
      <point x="482" y="385"/>
      <point x="555" y="308"/>
      <point x="555" y="207" type="curve" smooth="yes"/>
      <point x="555" y="83"/>
      <point x="444" y="-10"/>
      <point x="290" y="-10" type="curve" smooth="yes"/>
      <point x="152" y="-10"/>
      <point x="51" y="65"/>
      <point x="51" y="167" type="curve" smooth="yes"/>
      <point x="51" y="239"/>
      <point x="101" y="294"/>
      <point x="166" y="294" type="curve" smooth="yes"/>
      <point x="203" y="294"/>
      <point x="236" y="275"/>
      <point x="243" y="250" type="curve"/>
      <point x="193" y="250"/>
      <point x="157" y="209"/>
      <point x="157" y="152" type="curve" smooth="yes"/>
      <point x="157" y="84"/>
      <point x="210" y="37"/>
      <point x="288" y="37" type="curve" smooth="yes"/>
      <point x="379" y="37"/>
      <point x="429" y="100"/>
    </contour>
  </outline>
</glyph>
<glyph name="four" format="1">
  <advance width="585"/>
  <unicode hex="0034"/>
  <outline>
    <contour>
      <point x="18" y="229" type="line"/>
      <point x="370" y="780" type="line"/>
      <point x="401" y="780" type="line"/>
      <point x="401" y="227" type="line"/>
      <point x="484" y="230"/>
      <point x="494" y="241"/>
      <point x="494" y="318" type="curve"/>
      <point x="529" y="318" type="line"/>
      <point x="529" y="95" type="line"/>
      <point x="494" y="95" type="line"/>
      <point x="494" y="168"/>
      <point x="484" y="181"/>
      <point x="401" y="183" type="curve"/>
      <point x="401" y="162" type="line" smooth="yes"/>
      <point x="401" y="59"/>
      <point x="414" y="38"/>
      <point x="480" y="38" type="curve"/>
      <point x="480" y="0" type="line"/>
      <point x="199" y="0" type="line"/>
      <point x="199" y="38" type="line"/>
      <point x="287" y="38"/>
      <point x="303" y="61"/>
      <point x="303" y="155" type="curve" smooth="yes"/>
      <point x="303" y="179" type="line"/>
      <point x="18" y="179" type="line"/>
    </contour>
    <contour>
      <point x="303" y="585" type="line"/>
      <point x="298" y="585" type="line"/>
      <point x="68" y="229" type="line"/>
      <point x="303" y="229" type="line"/>
    </contour>
  </outline>
</glyph>
<glyph name="six" format="1">
  <advance width="643"/>
  <unicode hex="0036"/>
  <outline>
    <contour>
      <point x="586" y="259" type="curve" smooth="yes"/>
      <point x="586" y="401"/>
      <point x="484" y="508"/>
      <point x="349" y="508" type="curve" smooth="yes"/>
      <point x="282" y="508"/>
      <point x="234" y="480"/>
      <point x="191" y="418" type="curve"/>
      <point x="188" y="420" type="line"/>
      <point x="188" y="600"/>
      <point x="257" y="735"/>
      <point x="349" y="735" type="curve" smooth="yes"/>
      <point x="451" y="735"/>
      <point x="419" y="626"/>
      <point x="497" y="626" type="curve" smooth="yes"/>
      <point x="530" y="626"/>
      <point x="551" y="646"/>
      <point x="551" y="678" type="curve" smooth="yes"/>
      <point x="551" y="735"/>
      <point x="474" y="780"/>
      <point x="378" y="780" type="curve" smooth="yes"/>
      <point x="204" y="780"/>
      <point x="61" y="580"/>
      <point x="61" y="337" type="curve" smooth="yes"/>
      <point x="61" y="133"/>
      <point x="168" y="-10"/>
      <point x="321" y="-10" type="curve" smooth="yes"/>
      <point x="468" y="-10"/>
      <point x="586" y="109"/>
    </contour>
    <contour>
      <point x="186" y="332" type="line"/>
      <point x="230" y="421"/>
      <point x="274" y="459"/>
      <point x="335" y="459" type="curve" smooth="yes"/>
      <point x="417" y="459"/>
      <point x="461" y="388"/>
      <point x="461" y="255" type="curve" smooth="yes"/>
      <point x="461" y="105"/>
      <point x="417" y="35"/>
      <point x="325" y="35" type="curve" smooth="yes"/>
      <point x="234" y="35"/>
      <point x="186" y="119"/>
      <point x="186" y="283" type="curve" smooth="yes"/>
    </contour>
  </outline>
</glyph>
<glyph name="nine" format="1">
  <advance width="643"/>
  <unicode hex="0039"/>
  <outline>
    <contour>
      <point x="57" y="511" type="curve"/>
      <point x="57" y="369"/>
      <point x="159" y="262"/>
      <point x="294" y="262" type="curve" smooth="yes"/>
      <point x="361" y="262"/>
      <point x="409" y="290"/>
      <point x="452" y="352" type="curve"/>
      <point x="455" y="350" type="line"/>
      <point x="455" y="170"/>
      <point x="386" y="35"/>
      <point x="294" y="35" type="curve" smooth="yes"/>
      <point x="192" y="35"/>
      <point x="224" y="144"/>
      <point x="146" y="144" type="curve" smooth="yes"/>
      <point x="113" y="144"/>
      <point x="92" y="124"/>
      <point x="92" y="92" type="curve" smooth="yes"/>
      <point x="92" y="35"/>
      <point x="169" y="-10"/>
      <point x="265" y="-10" type="curve" smooth="yes"/>
      <point x="439" y="-10"/>
      <point x="582" y="190"/>
      <point x="582" y="433" type="curve" smooth="yes"/>
      <point x="582" y="637"/>
      <point x="475" y="780"/>
      <point x="322" y="780" type="curve" smooth="yes"/>
      <point x="175" y="780"/>
      <point x="57" y="661"/>
    </contour>
    <contour>
      <point x="457" y="438" type="line"/>
      <point x="413" y="349"/>
      <point x="369" y="311"/>
      <point x="308" y="311" type="curve" smooth="yes"/>
      <point x="226" y="311"/>
      <point x="182" y="382"/>
      <point x="182" y="515" type="curve" smooth="yes"/>
      <point x="182" y="665"/>
      <point x="226" y="735"/>
      <point x="318" y="735" type="curve" smooth="yes"/>
      <point x="409" y="735"/>
      <point x="457" y="651"/>
      <point x="457" y="487" type="curve"/>
    </contour>
  </outline>
</glyph>
<glyph name="semicolon" format="1">
  <advance width="311"/>
  <unicode hex="003B"/>
  <outline>
    <contour>
      <point x="89" y="381" type="curve" smooth="yes"/>
      <point x="89" y="345"/>
      <point x="118" y="316"/>
      <point x="154" y="316" type="curve" smooth="yes"/>
      <point x="191" y="316"/>
      <point x="220" y="345"/>
      <point x="220" y="381" type="curve" smooth="yes"/>
      <point x="220" y="418"/>
      <point x="191" y="447"/>
      <point x="154" y="447" type="curve" smooth="yes"/>
      <point x="118" y="447"/>
      <point x="89" y="418"/>
    </contour>
    <contour>
      <point x="94" y="-175" type="line"/>
      <point x="194" y="-103"/>
      <point x="228" y="-53"/>
      <point x="228" y="21" type="curve" smooth="yes"/>
      <point x="228" y="86"/>
      <point x="203" y="121"/>
      <point x="156" y="121" type="curve" smooth="yes"/>
      <point x="116" y="121"/>
      <point x="89" y="96"/>
      <point x="89" y="59" type="curve" smooth="yes"/>
      <point x="89" y="24"/>
      <point x="111" y="0"/>
      <point x="141" y="0" type="curve" smooth="yes"/>
      <point x="152" y="0"/>
      <point x="163" y="3"/>
      <point x="171" y="8" type="curve"/>
      <point x="171" y="-49"/>
      <point x="142" y="-93"/>
      <point x="71" y="-143" type="curve"/>
    </contour>
  </outline>
</glyph>
<glyph name="less" format="1">
  <advance width="581"/>
  <unicode hex="003C"/>
  <outline>
    <contour>
      <point x="84" y="336" type="line"/>
      <point x="497" y="544" type="line"/>
      <point x="497" y="600" type="line"/>
      <point x="39" y="368" type="line"/>
      <point x="39" y="304" type="line"/>
      <point x="497" y="72" type="line"/>
      <point x="497" y="126" type="line"/>
    </contour>
  </outline>
</glyph>
<glyph name="greater" format="1">
  <advance width="581"/>
  <unicode hex="003E"/>
  <outline>
    <contour>
      <point x="84" y="126" type="line"/>
      <point x="84" y="72" type="line"/>
      <point x="542" y="304" type="line"/>
      <point x="542" y="368" type="line"/>
      <point x="84" y="600" type="line"/>
      <point x="84" y="544" type="line"/>
      <point x="497" y="336" type="line"/>
    </contour>
  </outline>
</glyph>
<glyph name="question" format="1">
  <advance width="399"/>
  <unicode hex="003F"/>
  <outline>
    <contour>
      <point x="180" y="237" type="line"/>
      <point x="180" y="370" type="line"/>
      <point x="282" y="370"/>
      <point x="341" y="429"/>
      <point x="341" y="530" type="curve" smooth="yes"/>
      <point x="341" y="661"/>
      <point x="241" y="780"/>
      <point x="131" y="780" type="curve" smooth="yes"/>
      <point x="91" y="780"/>
      <point x="69" y="761"/>
      <point x="69" y="724" type="curve" smooth="yes"/>
      <point x="69" y="692"/>
      <point x="91" y="670"/>
      <point x="122" y="670" type="curve" smooth="yes"/>
      <point x="144" y="670"/>
      <point x="173" y="681"/>
      <point x="197" y="681" type="curve" smooth="yes"/>
      <point x="245" y="681"/>
      <point x="284" y="629"/>
      <point x="284" y="565" type="curve" smooth="yes"/>
      <point x="284" y="500"/>
      <point x="240" y="466"/>
      <point x="154" y="466" type="curve" smooth="yes"/>
      <point x="125" y="466" type="line"/>
      <point x="125" y="237" type="line"/>
    </contour>
    <contour>
      <point x="84" y="55" type="curve" smooth="yes"/>
      <point x="84" y="19"/>
      <point x="113" y="-10"/>
      <point x="149" y="-10" type="curve" smooth="yes"/>
      <point x="186" y="-10"/>
      <point x="215" y="19"/>
      <point x="215" y="55" type="curve" smooth="yes"/>
      <point x="215" y="92"/>
      <point x="186" y="121"/>
      <point x="149" y="121" type="curve" smooth="yes"/>
      <point x="113" y="121"/>
      <point x="84" y="92"/>
    </contour>
  </outline>
</glyph>
<glyph name="at" format="1">
  <advance width="1029"/>
  <unicode hex="0040"/>
  <outline>
    <contour>
      <point x="693" y="530" type="line"/>
      <point x="789" y="530" type="line"/>
      <point x="722" y="293" type="line" smooth="yes"/>
      <point x="707" y="240"/>
      <point x="696" y="187"/>
      <point x="696" y="167" type="curve" smooth="yes"/>
      <point x="696" y="142"/>
      <point x="713" y="127"/>
      <point x="740" y="127" type="curve" smooth="yes"/>
      <point x="828" y="127"/>
      <point x="921" y="277"/>
      <point x="921" y="420" type="curve" smooth="yes"/>
      <point x="921" y="601"/>
      <point x="773" y="735"/>
      <point x="571" y="735" type="curve" smooth="yes"/>
      <point x="330" y="735"/>
      <point x="143" y="545"/>
      <point x="143" y="299" type="curve" smooth="yes"/>
      <point x="143" y="70"/>
      <point x="307" y="-86"/>
      <point x="550" y="-86" type="curve" smooth="yes"/>
      <point x="662" y="-86"/>
      <point x="767" y="-53"/>
      <point x="864" y="14" type="curve"/>
      <point x="885" y="-17" type="line"/>
      <point x="768" y="-98"/>
      <point x="662" y="-134"/>
      <point x="537" y="-134" type="curve" smooth="yes"/>
      <point x="253" y="-134"/>
      <point x="52" y="46"/>
      <point x="52" y="300" type="curve" smooth="yes"/>
      <point x="52" y="570"/>
      <point x="277" y="780"/>
      <point x="565" y="780" type="curve" smooth="yes"/>
      <point x="804" y="780"/>
      <point x="966" y="635"/>
      <point x="966" y="422" type="curve" smooth="yes"/>
      <point x="966" y="239"/>
      <point x="847" y="77"/>
      <point x="712" y="77" type="curve" smooth="yes"/>
      <point x="647" y="77"/>
      <point x="613" y="116"/>
      <point x="607" y="192" type="curve"/>
      <point x="603" y="192" type="line"/>
      <point x="562" y="123"/>
      <point x="495" y="77"/>
      <point x="434" y="77" type="curve" smooth="yes"/>
      <point x="348" y="77"/>
      <point x="284" y="149"/>
      <point x="284" y="248" type="curve" smooth="yes"/>
      <point x="284" y="394"/>
      <point x="417" y="540"/>
      <point x="550" y="540" type="curve" smooth="yes"/>
      <point x="612" y="540"/>
      <point x="648" y="509"/>
      <point x="667" y="442" type="curve"/>
      <point x="671" y="441" type="line"/>
    </contour>
    <contour>
      <point x="558" y="498" type="curve" smooth="yes"/>
      <point x="470" y="498"/>
      <point x="382" y="362"/>
      <point x="382" y="227" type="curve" smooth="yes"/>
      <point x="382" y="158"/>
      <point x="405" y="122"/>
      <point x="449" y="122" type="curve" smooth="yes"/>
      <point x="535" y="122"/>
      <point x="634" y="267"/>
      <point x="634" y="394" type="curve" smooth="yes"/>
      <point x="634" y="459"/>
      <point x="606" y="498"/>
    </contour>
  </outline>
</glyph>
<glyph name="A" format="1">
  <advance width="772"/>
  <unicode hex="0041"/>
  <outline>
    <contour>
      <point x="383" y="830" type="move" name="topcap"/>
    </contour>
    <contour>
      <point x="638" y="0" type="move" name="bottom"/>
    </contour>
    <contour>
      <point x="529" y="171" type="line" smooth="yes"/>
      <point x="547" y="125"/>
      <point x="552" y="108"/>
      <point x="552" y="82" type="curve" smooth="yes"/>
      <point x="552" y="51"/>
      <point x="530" y="39"/>
      <point x="459" y="39" type="curve"/>
      <point x="459" y="0" type="line"/>
      <point x="785" y="0" type="line"/>
      <point x="785" y="39" type="line"/>
      <point x="716" y="39"/>
      <point x="694" y="56"/>
      <point x="633" y="206" type="curve" smooth="yes"/>
      <point x="406" y="770" type="line"/>
      <point x="363" y="770" type="line"/>
      <point x="103" y="119" type="line" smooth="yes"/>
      <point x="80" y="62"/>
      <point x="55" y="45"/>
      <point x="-6" y="38" type="curve"/>
      <point x="-6" y="0" type="line"/>
      <point x="237" y="0" type="line"/>
      <point x="237" y="38" type="line"/>
      <point x="182" y="38"/>
      <point x="159" y="50"/>
      <point x="159" y="87" type="curve" smooth="yes"/>
      <point x="159" y="114"/>
      <point x="175" y="169"/>
      <point x="221" y="279" type="curve"/>
      <point x="488" y="279" type="line"/>
    </contour>
    <contour>
      <point x="358" y="624" type="line"/>
      <point x="469" y="329" type="line"/>
      <point x="241" y="329" type="line"/>
    </contour>
  </outline>
</glyph>
<glyph name="D" format="1">
  <advance width="884"/>
  <unicode hex="0044"/>
  <outline>
    <contour>
      <point x="441" y="830" type="move" name="topcap"/>
    </contour>
    <contour>
      <point x="441" y="0" type="move" name="bottom"/>
    </contour>
    <contour>
      <point x="38" y="0" type="line"/>
      <point x="38" y="38" type="line"/>
      <point x="140" y="41"/>
      <point x="158" y="57"/>
      <point x="158" y="152" type="curve" smooth="yes"/>
      <point x="158" y="618" type="line" smooth="yes"/>
      <point x="158" y="711"/>
      <point x="144" y="728"/>
      <point x="58" y="732" type="curve"/>
      <point x="58" y="770" type="line"/>
      <point x="409" y="770" type="line" smooth="yes"/>
      <point x="650" y="770"/>
      <point x="825" y="602"/>
      <point x="825" y="372" type="curve" smooth="yes"/>
      <point x="825" y="153"/>
      <point x="662" y="0"/>
      <point x="429" y="0" type="curve" smooth="yes"/>
    </contour>
    <contour>
      <point x="280" y="721" type="line" smooth="yes"/>
      <point x="269" y="721"/>
      <point x="263" y="714"/>
      <point x="263" y="704" type="curve" smooth="yes"/>
      <point x="263" y="163" type="line" smooth="yes"/>
      <point x="263" y="86"/>
      <point x="311" y="49"/>
      <point x="412" y="49" type="curve" smooth="yes"/>
      <point x="593" y="49"/>
      <point x="695" y="160"/>
      <point x="695" y="370" type="curve" smooth="yes"/>
      <point x="695" y="591"/>
      <point x="585" y="721"/>
      <point x="407" y="721" type="curve" smooth="yes"/>
    </contour>
  </outline>
</glyph>
<glyph name="F" format="1">
  <advance width="670"/>
  <unicode hex="0046"/>
  <outline>
    <contour>
      <point x="260" y="159" type="line" smooth="yes"/>
      <point x="260" y="57"/>
      <point x="278" y="41"/>
      <point x="399" y="38" type="curve"/>
      <point x="399" y="0" type="line"/>
      <point x="45" y="0" type="line"/>
      <point x="45" y="38" type="line"/>
      <point x="139" y="41"/>
      <point x="155" y="58"/>
      <point x="155" y="152" type="curve" smooth="yes"/>
      <point x="155" y="618" type="line" smooth="yes"/>
      <point x="155" y="711"/>
      <point x="141" y="728"/>
      <point x="55" y="732" type="curve"/>
      <point x="55" y="770" type="line"/>
      <point x="633" y="770" type="line"/>
      <point x="644" y="579" type="line"/>
      <point x="609" y="579" type="line"/>
      <point x="592" y="693"/>
      <point x="547" y="722"/>
      <point x="404" y="722" type="curve" smooth="yes"/>
      <point x="277" y="722" type="line" smooth="yes"/>
      <point x="266" y="722"/>
      <point x="260" y="715"/>
      <point x="260" y="705" type="curve" smooth="yes"/>
      <point x="260" y="403" type="line"/>
      <point x="389" y="403"/>
      <point x="440" y="427"/>
      <point x="449" y="528" type="curve"/>
      <point x="484" y="528" type="line"/>
      <point x="484" y="235" type="line"/>
      <point x="449" y="235" type="line"/>
      <point x="435" y="337"/>
      <point x="396" y="362"/>
      <point x="260" y="363" type="curve"/>
    </contour>
  </outline>
</glyph>
<glyph name="G" format="1">
  <advance width="870"/>
  <unicode hex="0047"/>
  <outline>
    <contour>
      <point x="446" y="830" type="move" name="topcap"/>
    </contour>
    <contour>
      <point x="431" y="0" type="move" name="bottom"/>
    </contour>
    <contour>
      <point x="428" y="-10" type="curve" smooth="yes"/>
      <point x="499" y="-10"/>
      <point x="562" y="8"/>
      <point x="608" y="34" type="curve" smooth="yes"/>
      <point x="684" y="77"/>
      <point x="710" y="83"/>
      <point x="761" y="83" type="curve"/>
      <point x="761" y="195" type="line" smooth="yes"/>
      <point x="761" y="264"/>
      <point x="778" y="284"/>
      <point x="843" y="284" type="curve"/>
      <point x="843" y="322" type="line"/>
      <point x="559" y="322" type="line"/>
      <point x="559" y="284" type="line"/>
      <point x="630" y="284"/>
      <point x="659" y="263"/>
      <point x="659" y="185" type="curve" smooth="yes"/>
      <point x="659" y="111"/>
      <point x="584" y="44"/>
      <point x="455" y="44" type="curve" smooth="yes"/>
      <point x="287" y="44"/>
      <point x="194" y="164"/>
      <point x="194" y="378" type="curve" smooth="yes"/>
      <point x="194" y="596"/>
      <point x="290" y="728"/>
      <point x="452" y="728" type="curve" smooth="yes"/>
      <point x="560" y="728"/>
      <point x="666" y="670"/>
      <point x="666" y="540" type="curve"/>
      <point x="714" y="540" type="line"/>
      <point x="727" y="770" type="line"/>
      <point x="692" y="770" type="line"/>
      <point x="671" y="708" type="line"/>
      <point x="589" y="759"/>
      <point x="523" y="780"/>
      <point x="443" y="780" type="curve" smooth="yes"/>
      <point x="216" y="780"/>
      <point x="60" y="614"/>
      <point x="60" y="372" type="curve" smooth="yes"/>
      <point x="60" y="139"/>
      <point x="202" y="-10"/>
    </contour>
  </outline>
</glyph>
<glyph name="J" format="1">
  <advance width="394"/>
  <unicode hex="004A"/>
  <outline>
    <contour>
      <point x="199" y="830" type="move" name="topcap"/>
    </contour>
    <contour>
      <point x="145" y="618" type="line" smooth="yes"/>
      <point x="145" y="711"/>
      <point x="131" y="728"/>
      <point x="45" y="732" type="curve"/>
      <point x="45" y="770" type="line"/>
      <point x="349" y="770" type="line"/>
      <point x="349" y="732" type="line"/>
      <point x="263" y="729"/>
      <point x="250" y="712"/>
      <point x="250" y="611" type="curve" smooth="yes"/>
      <point x="250" y="-2" type="line" smooth="yes"/>
      <point x="250" y="-169"/>
      <point x="177" y="-260"/>
      <point x="42" y="-260" type="curve" smooth="yes"/>
      <point x="-49" y="-260"/>
      <point x="-110" y="-221"/>
      <point x="-110" y="-163" type="curve" smooth="yes"/>
      <point x="-110" y="-129"/>
      <point x="-91" y="-110"/>
      <point x="-59" y="-110" type="curve" smooth="yes"/>
      <point x="-34" y="-110"/>
      <point x="-22" y="-120"/>
      <point x="-2" y="-157" type="curve" smooth="yes"/>
      <point x="21" y="-200"/>
      <point x="34" y="-212"/>
      <point x="60" y="-212" type="curve" smooth="yes"/>
      <point x="114" y="-212"/>
      <point x="145" y="-150"/>
      <point x="145" y="-43" type="curve" smooth="yes"/>
    </contour>
  </outline>
</glyph>
<glyph name="M" format="1">
  <advance width="1090"/>
  <unicode hex="004D"/>
  <outline>
    <contour>
      <point x="550" y="179" type="line"/>
      <point x="810" y="770" type="line"/>
      <point x="1034" y="770" type="line"/>
      <point x="1034" y="732" type="line"/>
      <point x="948" y="729"/>
      <point x="935" y="702"/>
      <point x="935" y="581" type="curve" smooth="yes"/>
      <point x="935" y="189" type="line" smooth="yes"/>
      <point x="935" y="57"/>
      <point x="950" y="41"/>
      <point x="1044" y="38" type="curve"/>
      <point x="1044" y="0" type="line"/>
      <point x="720" y="0" type="line"/>
      <point x="720" y="38" type="line"/>
      <point x="814" y="41"/>
      <point x="830" y="58"/>
      <point x="830" y="182" type="curve" smooth="yes"/>
      <point x="830" y="646" type="line"/>
      <point x="820" y="646" type="line"/>
      <point x="528" y="-10" type="line"/>
      <point x="506" y="-10" type="line"/>
      <point x="219" y="646" type="line"/>
      <point x="215" y="646" type="line"/>
      <point x="215" y="189" type="line" smooth="yes"/>
      <point x="215" y="57"/>
      <point x="230" y="41"/>
      <point x="324" y="38" type="curve"/>
      <point x="324" y="0" type="line"/>
      <point x="45" y="0" type="line"/>
      <point x="45" y="38" type="line"/>
      <point x="139" y="41"/>
      <point x="155" y="58"/>
      <point x="155" y="182" type="curve" smooth="yes"/>
      <point x="155" y="588" type="line" smooth="yes"/>
      <point x="155" y="701"/>
      <point x="141" y="728"/>
      <point x="55" y="732" type="curve"/>
      <point x="55" y="770" type="line"/>
      <point x="294" y="770" type="line"/>
      <point x="546" y="179" type="line"/>
    </contour>
  </outline>
</glyph>
<glyph name="O" format="1">
  <advance width="946"/>
  <unicode hex="004F"/>
  <outline>
    <contour>
      <point x="474" y="830" type="move" name="topcap"/>
    </contour>
    <contour>
      <point x="474" y="0" type="move" name="bottom"/>
    </contour>
    <contour>
      <point x="473" y="780" type="curve" smooth="yes"/>
      <point x="239" y="780"/>
      <point x="57" y="605"/>
      <point x="57" y="379" type="curve" smooth="yes"/>
      <point x="57" y="162"/>
      <point x="241" y="-10"/>
      <point x="473" y="-10" type="curve" smooth="yes"/>
      <point x="705" y="-10"/>
      <point x="889" y="162"/>
      <point x="889" y="379" type="curve" smooth="yes"/>
      <point x="889" y="605"/>
      <point x="707" y="780"/>
    </contour>
    <contour>
      <point x="473" y="45" type="curve" smooth="yes"/>
      <point x="297" y="45"/>
      <point x="187" y="173"/>
      <point x="187" y="376" type="curve" smooth="yes"/>
      <point x="187" y="590"/>
      <point x="297" y="725"/>
      <point x="473" y="725" type="curve" smooth="yes"/>
      <point x="649" y="725"/>
      <point x="759" y="590"/>
      <point x="759" y="376" type="curve" smooth="yes"/>
      <point x="759" y="173"/>
      <point x="648" y="45"/>
    </contour>
  </outline>
</glyph>
<glyph name="P" format="1">
  <advance width="687"/>
  <unicode hex="0050"/>
  <outline>
    <contour>
      <point x="658" y="577" type="curve" smooth="yes"/>
      <point x="658" y="698"/>
      <point x="552" y="770"/>
      <point x="369" y="770" type="curve" smooth="yes"/>
      <point x="55" y="770" type="line"/>
      <point x="55" y="732" type="line"/>
      <point x="141" y="728"/>
      <point x="155" y="711"/>
      <point x="155" y="618" type="curve" smooth="yes"/>
      <point x="155" y="152" type="line" smooth="yes"/>
      <point x="155" y="58"/>
      <point x="139" y="41"/>
      <point x="45" y="38" type="curve"/>
      <point x="45" y="0" type="line"/>
      <point x="398" y="0" type="line"/>
      <point x="398" y="38" type="line"/>
      <point x="277" y="38"/>
      <point x="260" y="58"/>
      <point x="260" y="157" type="curve" smooth="yes"/>
      <point x="260" y="350" type="line"/>
      <point x="350" y="350" type="line" smooth="yes"/>
      <point x="573" y="350"/>
      <point x="658" y="437"/>
    </contour>
    <contour>
      <point x="260" y="706" type="line" smooth="yes"/>
      <point x="260" y="716"/>
      <point x="266" y="723"/>
      <point x="277" y="723" type="curve" smooth="yes"/>
      <point x="369" y="723" type="line" smooth="yes"/>
      <point x="478" y="723"/>
      <point x="528" y="677"/>
      <point x="528" y="565" type="curve" smooth="yes"/>
      <point x="528" y="448"/>
      <point x="463" y="400"/>
      <point x="331" y="400" type="curve" smooth="yes"/>
      <point x="260" y="400" type="line"/>
    </contour>
  </outline>
</glyph>
<glyph name="Q" format="1">
  <advance width="948"/>
  <unicode hex="0051"/>
  <outline>
    <contour>
      <point x="474" y="780" type="curve" smooth="yes"/>
      <point x="240" y="780"/>
      <point x="58" y="606"/>
      <point x="58" y="376" type="curve" smooth="yes"/>
      <point x="58" y="156"/>
      <point x="224" y="-22"/>
      <point x="449" y="-29" type="curve"/>
      <point x="319" y="-103" type="line" smooth="yes"/>
      <point x="259" y="-138"/>
      <point x="253" y="-145"/>
      <point x="253" y="-163" type="curve" smooth="yes"/>
      <point x="253" y="-178"/>
      <point x="264" y="-188"/>
      <point x="282" y="-188" type="curve" smooth="yes"/>
      <point x="327" y="-188"/>
      <point x="337" y="-123"/>
      <point x="406" y="-123" type="curve" smooth="yes"/>
      <point x="507" y="-123"/>
      <point x="610" y="-260"/>
      <point x="758" y="-260" type="curve" smooth="yes"/>
      <point x="857" y="-260"/>
      <point x="933" y="-198"/>
      <point x="933" y="-114" type="curve" smooth="yes"/>
      <point x="933" y="-100"/>
      <point x="931" y="-84"/>
      <point x="929" y="-72" type="curve"/>
      <point x="904" y="-72" type="line"/>
      <point x="884" y="-137"/>
      <point x="856" y="-161"/>
      <point x="794" y="-161" type="curve" smooth="yes"/>
      <point x="685" y="-161"/>
      <point x="601" y="-86"/>
      <point x="482" y="-86" type="curve" smooth="yes"/>
      <point x="471" y="-86"/>
      <point x="455" y="-87"/>
      <point x="447" y="-88" type="curve"/>
      <point x="447" y="-84" type="line"/>
      <point x="475" y="-63"/>
      <point x="510" y="-47"/>
      <point x="546" y="-33" type="curve" smooth="yes"/>
      <point x="622" y="-5"/>
      <point x="694" y="25"/>
      <point x="749" y="73" type="curve" smooth="yes"/>
      <point x="834" y="147"/>
      <point x="890" y="253"/>
      <point x="890" y="378" type="curve" smooth="yes"/>
      <point x="890" y="605"/>
      <point x="708" y="780"/>
    </contour>
    <contour>
      <point x="474" y="20" type="curve" smooth="yes"/>
      <point x="298" y="20"/>
      <point x="188" y="158"/>
      <point x="188" y="376" type="curve" smooth="yes"/>
      <point x="188" y="590"/>
      <point x="298" y="725"/>
      <point x="474" y="725" type="curve" smooth="yes"/>
      <point x="650" y="725"/>
      <point x="760" y="590"/>
      <point x="760" y="376" type="curve" smooth="yes"/>
      <point x="760" y="158"/>
      <point x="649" y="20"/>
    </contour>
  </outline>
</glyph>
<glyph name="R" format="1">
  <advance width="788"/>
  <unicode hex="0052"/>
  <outline>
    <contour>
      <point x="375" y="830" type="move" name="topcap"/>
    </contour>
    <contour>
      <point x="412" y="0" type="move" name="bottom"/>
    </contour>
    <contour>
      <point x="658" y="577" type="curve" smooth="yes"/>
      <point x="658" y="698"/>
      <point x="552" y="770"/>
      <point x="369" y="770" type="curve" smooth="yes"/>
      <point x="55" y="770" type="line"/>
      <point x="55" y="732" type="line"/>
      <point x="141" y="728"/>
      <point x="155" y="711"/>
      <point x="155" y="618" type="curve" smooth="yes"/>
      <point x="155" y="152" type="line" smooth="yes"/>
      <point x="155" y="58"/>
      <point x="139" y="41"/>
      <point x="45" y="38" type="curve"/>
      <point x="45" y="0" type="line"/>
      <point x="398" y="0" type="line"/>
      <point x="398" y="38" type="line"/>
      <point x="277" y="38"/>
      <point x="260" y="58"/>
      <point x="260" y="157" type="curve" smooth="yes"/>
      <point x="260" y="365" type="line"/>
      <point x="322" y="365"/>
      <point x="342" y="360"/>
      <point x="377" y="314" type="curve" smooth="yes"/>
      <point x="622" y="0" type="line"/>
      <point x="815" y="0" type="line"/>
      <point x="815" y="38" type="line"/>
      <point x="756" y="47"/>
      <point x="714" y="63"/>
      <point x="678" y="107" type="curve" smooth="yes"/>
      <point x="457" y="373" type="line"/>
      <point x="597" y="397"/>
      <point x="658" y="471"/>
    </contour>
    <contour>
      <point x="260" y="706" type="line" smooth="yes"/>
      <point x="260" y="716"/>
      <point x="266" y="723"/>
      <point x="277" y="723" type="curve" smooth="yes"/>
      <point x="369" y="723" type="line" smooth="yes"/>
      <point x="478" y="723"/>
      <point x="528" y="679"/>
      <point x="528" y="572" type="curve" smooth="yes"/>
      <point x="528" y="461"/>
      <point x="463" y="415"/>
      <point x="331" y="415" type="curve" smooth="yes"/>
      <point x="260" y="415" type="line"/>
    </contour>
  </outline>
</glyph>
<glyph name="S" format="1">
  <advance width="645"/>
  <unicode hex="0053"/>
  <outline>
    <contour>
      <point x="316" y="830" type="move" name="topcap"/>
    </contour>
    <contour>
      <point x="318" y="0" type="move" name="bottom"/>
    </contour>
    <contour>
      <point x="73" y="11" type="line"/>
      <point x="96" y="11" type="line"/>
      <point x="124" y="60" type="line"/>
      <point x="186" y="10"/>
      <point x="243" y="-10"/>
      <point x="319" y="-10" type="curve" smooth="yes"/>
      <point x="480" y="-10"/>
      <point x="591" y="83"/>
      <point x="591" y="217" type="curve" smooth="yes"/>
      <point x="591" y="322"/>
      <point x="535" y="377"/>
      <point x="337" y="466" type="curve" smooth="yes"/>
      <point x="223" y="517"/>
      <point x="184" y="555"/>
      <point x="184" y="618" type="curve" smooth="yes"/>
      <point x="184" y="685"/>
      <point x="236" y="729"/>
      <point x="317" y="729" type="curve" smooth="yes"/>
      <point x="402" y="729"/>
      <point x="464" y="676"/>
      <point x="496" y="567" type="curve"/>
      <point x="533" y="567" type="line"/>
      <point x="522" y="766" type="line"/>
      <point x="499" y="766" type="line"/>
      <point x="473" y="721" type="line"/>
      <point x="421" y="762"/>
      <point x="372" y="780"/>
      <point x="314" y="780" type="curve" smooth="yes"/>
      <point x="183" y="780"/>
      <point x="90" y="692"/>
      <point x="90" y="568" type="curve" smooth="yes"/>
      <point x="90" y="465"/>
      <point x="141" y="410"/>
      <point x="307" y="337" type="curve" smooth="yes"/>
      <point x="442" y="278"/>
      <point x="482" y="239"/>
      <point x="482" y="171" type="curve" smooth="yes"/>
      <point x="482" y="92"/>
      <point x="420" y="41"/>
      <point x="322" y="41" type="curve" smooth="yes"/>
      <point x="202" y="41"/>
      <point x="114" y="114"/>
      <point x="95" y="235" type="curve"/>
      <point x="58" y="235" type="line"/>
    </contour>
  </outline>
</glyph>
<glyph name="T" format="1">
  <advance width="803"/>
  <unicode hex="0054"/>
  <outline>
    <contour>
      <point x="402" y="830" type="move" name="topcap"/>
    </contour>
    <contour>
      <point x="402" y="0" type="move" name="bottom"/>
    </contour>
    <contour>
      <point x="776" y="770" type="line"/>
      <point x="21" y="770" type="line"/>
      <point x="21" y="579" type="line"/>
      <point x="58" y="579" type="line"/>
      <point x="62" y="721"/>
      <point x="140" y="727"/>
      <point x="244" y="727" type="curve" smooth="yes"/>
      <point x="329" y="727"/>
      <point x="342" y="719"/>
      <point x="342" y="696" type="curve" smooth="yes"/>
      <point x="342" y="161" type="line" smooth="yes"/>
      <point x="342" y="75"/>
      <point x="325" y="42"/>
      <point x="212" y="38" type="curve"/>
      <point x="212" y="0" type="line"/>
      <point x="590" y="0" type="line"/>
      <point x="590" y="38" type="line"/>
      <point x="477" y="42"/>
      <point x="461" y="75"/>
      <point x="461" y="161" type="curve" smooth="yes"/>
      <point x="461" y="696" type="line" smooth="yes"/>
      <point x="461" y="719"/>
      <point x="475" y="727"/>
      <point x="574" y="727" type="curve" smooth="yes"/>
      <point x="690" y="727"/>
      <point x="736" y="695"/>
      <point x="745" y="579" type="curve"/>
      <point x="786" y="579" type="line"/>
    </contour>
  </outline>
</glyph>
<glyph name="W" format="1">
  <advance width="1176"/>
  <unicode hex="0057"/>
  <outline>
    <contour>
      <point x="615" y="830" type="move" name="topcap"/>
    </contour>
    <contour>
      <point x="700" y="600" type="line" smooth="yes"/>
      <point x="687" y="644"/>
      <point x="679" y="671"/>
      <point x="679" y="691" type="curve" smooth="yes"/>
      <point x="679" y="721"/>
      <point x="693" y="731"/>
      <point x="770" y="731" type="curve"/>
      <point x="770" y="770" type="line"/>
      <point x="464" y="770" type="line"/>
      <point x="464" y="731" type="line"/>
      <point x="502" y="731"/>
      <point x="527" y="710"/>
      <point x="563" y="633" type="curve"/>
      <point x="552" y="597"/>
      <point x="532" y="552"/>
      <point x="514" y="500" type="curve" smooth="yes"/>
      <point x="391" y="154" type="line"/>
      <point x="239" y="617" type="line" smooth="yes"/>
      <point x="229" y="647"/>
      <point x="223" y="670"/>
      <point x="223" y="687" type="curve" smooth="yes"/>
      <point x="223" y="721"/>
      <point x="247" y="731"/>
      <point x="315" y="731" type="curve"/>
      <point x="315" y="770" type="line"/>
      <point x="-11" y="770" type="line"/>
      <point x="-11" y="731" type="line"/>
      <point x="70" y="731"/>
      <point x="94" y="693"/>
      <point x="141" y="564" type="curve" smooth="yes"/>
      <point x="349" y="-10" type="line"/>
      <point x="384" y="-10" type="line"/>
      <point x="597" y="559" type="line"/>
      <point x="789" y="-10" type="line"/>
      <point x="824" y="-10" type="line"/>
      <point x="1075" y="651" type="line" smooth="yes"/>
      <point x="1096" y="708"/>
      <point x="1123" y="732"/>
      <point x="1184" y="732" type="curve"/>
      <point x="1184" y="770" type="line"/>
      <point x="941" y="770" type="line"/>
      <point x="941" y="732" type="line"/>
      <point x="996" y="732"/>
      <point x="1016" y="721"/>
      <point x="1016" y="687" type="curve" smooth="yes"/>
      <point x="1016" y="664"/>
      <point x="1009" y="637"/>
      <point x="990" y="585" type="curve" smooth="yes"/>
      <point x="834" y="151" type="line"/>
    </contour>
  </outline>
</glyph>
<glyph name="X" format="1">
  <advance width="818"/>
  <unicode hex="0058"/>
  <outline>
    <contour>
      <point x="465" y="421" type="line"/>
      <point x="624" y="626" type="line" smooth="yes"/>
      <point x="697" y="720"/>
      <point x="715" y="732"/>
      <point x="780" y="732" type="curve"/>
      <point x="780" y="770" type="line"/>
      <point x="505" y="770" type="line"/>
      <point x="505" y="732" type="line"/>
      <point x="561" y="732"/>
      <point x="580" y="721"/>
      <point x="580" y="688" type="curve" smooth="yes"/>
      <point x="580" y="661"/>
      <point x="567" y="636"/>
      <point x="530" y="589" type="curve" smooth="yes"/>
      <point x="432" y="465" type="line"/>
      <point x="323" y="627" type="line" smooth="yes"/>
      <point x="304" y="655"/>
      <point x="295" y="676"/>
      <point x="295" y="693" type="curve" smooth="yes"/>
      <point x="295" y="720"/>
      <point x="316" y="732"/>
      <point x="360" y="732" type="curve"/>
      <point x="360" y="770" type="line"/>
      <point x="28" y="770" type="line"/>
      <point x="28" y="732" type="line"/>
      <point x="85" y="732"/>
      <point x="125" y="712"/>
      <point x="158" y="666" type="curve" smooth="yes"/>
      <point x="361" y="389" type="line"/>
      <point x="165" y="139" type="line" smooth="yes"/>
      <point x="103" y="61"/>
      <point x="66" y="38"/>
      <point x="2" y="38" type="curve"/>
      <point x="2" y="0" type="line"/>
      <point x="280" y="0" type="line"/>
      <point x="280" y="38" type="line"/>
      <point x="218" y="38"/>
      <point x="199" y="44"/>
      <point x="199" y="64" type="curve" smooth="yes"/>
      <point x="199" y="89"/>
      <point x="225" y="129"/>
      <point x="308" y="234" type="curve" smooth="yes"/>
      <point x="394" y="342" type="line"/>
      <point x="508" y="172" type="line" smooth="yes"/>
      <point x="553" y="104"/>
      <point x="559" y="89"/>
      <point x="559" y="70" type="curve" smooth="yes"/>
      <point x="559" y="50"/>
      <point x="540" y="38"/>
      <point x="481" y="38" type="curve"/>
      <point x="481" y="0" type="line"/>
      <point x="822" y="0" type="line"/>
      <point x="822" y="38" type="line"/>
      <point x="772" y="38"/>
      <point x="729" y="63"/>
      <point x="695" y="109" type="curve" smooth="yes"/>
    </contour>
  </outline>
</glyph>
<glyph name="Z" format="1">
  <advance width="770"/>
  <unicode hex="005A"/>
  <outline>
    <contour>
      <point x="391" y="830" type="move" name="topcap"/>
    </contour>
    <contour>
      <point x="387" y="0" type="move" name="bottom"/>
    </contour>
    <contour>
      <point x="722" y="235" type="line"/>
      <point x="679" y="235" type="line"/>
      <point x="655" y="79"/>
      <point x="626" y="46"/>
      <point x="489" y="46" type="curve" smooth="yes"/>
      <point x="179" y="46" type="line"/>
      <point x="700" y="766" type="line"/>
      <point x="700" y="770" type="line"/>
      <point x="91" y="770" type="line"/>
      <point x="76" y="586" type="line"/>
      <point x="113" y="586" type="line"/>
      <point x="131" y="690"/>
      <point x="174" y="728"/>
      <point x="268" y="728" type="curve" smooth="yes"/>
      <point x="542" y="728" type="line"/>
      <point x="16" y="4" type="line"/>
      <point x="16" y="0" type="line"/>
      <point x="710" y="0" type="line"/>
    </contour>
  </outline>
</glyph>
<glyph name="bracketleft" format="1">
  <advance width="371"/>
  <unicode hex="005B"/>
  <outline>
    <contour>
      <point x="348" y="773" type="line"/>
      <point x="348" y="820" type="line"/>
      <point x="107" y="820" type="line"/>
      <point x="107" y="-150" type="line"/>
      <point x="348" y="-150" type="line"/>
      <point x="348" y="-103" type="line"/>
      <point x="197" y="-103" type="line"/>
      <point x="197" y="773" type="line"/>
    </contour>
  </outline>
</glyph>
<glyph name="bracketright" format="1">
  <advance width="371"/>
  <unicode hex="005D"/>
  <outline>
    <contour>
      <point x="23" y="-103" type="line"/>
      <point x="23" y="-150" type="line"/>
      <point x="264" y="-150" type="line"/>
      <point x="264" y="820" type="line"/>
      <point x="23" y="820" type="line"/>
      <point x="23" y="773" type="line"/>
      <point x="174" y="773" type="line"/>
      <point x="174" y="-103" type="line"/>
    </contour>
  </outline>
</glyph>
<glyph name="a" format="1">
  <advance width="554"/>
  <unicode hex="0061"/>
  <outline>
    <contour>
      <point x="265" y="651" type="move" name="top"/>
    </contour>
    <contour>
      <point x="446" y="0" type="move" name="bottom"/>
    </contour>
    <contour>
      <point x="349" y="217" type="line" smooth="yes"/>
      <point x="349" y="126"/>
      <point x="293" y="51"/>
      <point x="224" y="51" type="curve" smooth="yes"/>
      <point x="176" y="51"/>
      <point x="144" y="82"/>
      <point x="144" y="126" type="curve" smooth="yes"/>
      <point x="144" y="185"/>
      <point x="196" y="238"/>
      <point x="349" y="296" type="curve"/>
    </contour>
    <contour>
      <point x="205" y="276" type="line" smooth="yes"/>
      <point x="84" y="224"/>
      <point x="43" y="173"/>
      <point x="43" y="109" type="curve" smooth="yes"/>
      <point x="43" y="38"/>
      <point x="95" y="-9"/>
      <point x="178" y="-9" type="curve" smooth="yes"/>
      <point x="252" y="-9"/>
      <point x="317" y="32"/>
      <point x="352" y="97" type="curve"/>
      <point x="357" y="97" type="line"/>
      <point x="357" y="29"/>
      <point x="386" y="-10"/>
      <point x="444" y="-10" type="curve" smooth="yes"/>
      <point x="491" y="-10"/>
      <point x="539" y="13"/>
      <point x="555" y="44" type="curve"/>
      <point x="541" y="68" type="line"/>
      <point x="529" y="48"/>
      <point x="510" y="46"/>
      <point x="492" y="46" type="curve" smooth="yes"/>
      <point x="462" y="46"/>
      <point x="447" y="83"/>
      <point x="447" y="160" type="curve" smooth="yes"/>
      <point x="447" y="384" type="line" smooth="yes"/>
      <point x="447" y="498"/>
      <point x="397" y="540"/>
      <point x="263" y="540" type="curve" smooth="yes"/>
      <point x="138" y="540"/>
      <point x="67" y="503"/>
      <point x="67" y="439" type="curve" smooth="yes"/>
      <point x="67" y="407"/>
      <point x="85" y="389"/>
      <point x="117" y="389" type="curve" smooth="yes"/>
      <point x="143" y="389"/>
      <point x="154" y="399"/>
      <point x="169" y="437" type="curve"/>
      <point x="186" y="489"/>
      <point x="199" y="502"/>
      <point x="245" y="502" type="curve" smooth="yes"/>
      <point x="316" y="502"/>
      <point x="349" y="463"/>
      <point x="349" y="380" type="curve" smooth="yes"/>
      <point x="349" y="339" type="line"/>
    </contour>
  </outline>
</glyph>
<glyph name="c" format="1">
  <advance width="536"/>
  <unicode hex="0063"/>
  <outline>
    <contour>
      <point x="316" y="651" type="move" name="top"/>
    </contour>
    <contour>
      <point x="291" y="0" type="move" name="bottom"/>
    </contour>
    <contour>
      <point x="476" y="112" type="line"/>
      <point x="426" y="63"/>
      <point x="377" y="42"/>
      <point x="322" y="42" type="curve" smooth="yes"/>
      <point x="219" y="42"/>
      <point x="163" y="124"/>
      <point x="163" y="276" type="curve" smooth="yes"/>
      <point x="163" y="418"/>
      <point x="213" y="493"/>
      <point x="307" y="493" type="curve" smooth="yes"/>
      <point x="346" y="493"/>
      <point x="367" y="482"/>
      <point x="393" y="451" type="curve" smooth="yes"/>
      <point x="418" y="417"/>
      <point x="430" y="410"/>
      <point x="454" y="410" type="curve" smooth="yes"/>
      <point x="484" y="410"/>
      <point x="503" y="426"/>
      <point x="503" y="452" type="curve" smooth="yes"/>
      <point x="503" y="504"/>
      <point x="430" y="540"/>
      <point x="327" y="540" type="curve" smooth="yes"/>
      <point x="161" y="540"/>
      <point x="49" y="431"/>
      <point x="49" y="261" type="curve" smooth="yes"/>
      <point x="49" y="99"/>
      <point x="148" y="-10"/>
      <point x="290" y="-10" type="curve" smooth="yes"/>
      <point x="378" y="-10"/>
      <point x="458" y="25"/>
      <point x="506" y="83" type="curve"/>
    </contour>
  </outline>
</glyph>
<glyph name="h" format="1">
  <advance width="688"/>
  <unicode hex="0068"/>
  <outline>
    <contour>
      <point x="386" y="651" type="move" name="top"/>
    </contour>
    <contour>
      <point x="345" y="0" type="move" name="bottom"/>
    </contour>
    <contour>
      <point x="208" y="287" type="line" smooth="yes"/>
      <point x="208" y="348"/>
      <point x="211" y="367"/>
      <point x="225" y="395" type="curve" smooth="yes"/>
      <point x="254" y="451"/>
      <point x="309" y="485"/>
      <point x="371" y="485" type="curve" smooth="yes"/>
      <point x="453" y="485"/>
      <point x="484" y="428"/>
      <point x="484" y="278" type="curve" smooth="yes"/>
      <point x="484" y="152" type="line" smooth="yes"/>
      <point x="484" y="51"/>
      <point x="476" y="39"/>
      <point x="400" y="35" type="curve"/>
      <point x="400" y="0" type="line"/>
      <point x="665" y="0" type="line"/>
      <point x="665" y="35" type="line"/>
      <point x="589" y="40"/>
      <point x="583" y="50"/>
      <point x="583" y="159" type="curve" smooth="yes"/>
      <point x="583" y="319" type="line" smooth="yes"/>
      <point x="583" y="404"/>
      <point x="573" y="451"/>
      <point x="550" y="481" type="curve" smooth="yes"/>
      <point x="522" y="517"/>
      <point x="467" y="540"/>
      <point x="406" y="540" type="curve" smooth="yes"/>
      <point x="333" y="540"/>
      <point x="251" y="502"/>
      <point x="210" y="449" type="curve"/>
      <point x="206" y="449" type="line"/>
      <point x="206" y="830" type="line"/>
      <point x="22" y="792" type="line"/>
      <point x="22" y="758" type="line"/>
      <point x="82" y="758"/>
      <point x="97" y="750"/>
      <point x="103" y="718" type="curve" smooth="yes"/>
      <point x="108" y="694"/>
      <point x="110" y="649"/>
      <point x="110" y="571" type="curve" smooth="yes"/>
      <point x="110" y="152" type="line" smooth="yes"/>
      <point x="110" y="51"/>
      <point x="101" y="40"/>
      <point x="24" y="35" type="curve"/>
      <point x="24" y="0" type="line"/>
      <point x="290" y="0" type="line"/>
      <point x="290" y="35" type="line"/>
      <point x="214" y="40"/>
      <point x="208" y="49"/>
      <point x="208" y="159" type="curve" smooth="yes"/>
    </contour>
  </outline>
</glyph>
<glyph name="j" format="1">
  <advance width="304"/>
  <unicode hex="006A"/>
  <outline>
    <contour>
      <point x="162" y="651" type="move" name="top"/>
    </contour>
    <contour>
      <point x="213" y="540" type="line"/>
      <point x="17" y="502" type="line"/>
      <point x="17" y="467" type="line"/>
      <point x="83" y="467"/>
      <point x="102" y="458"/>
      <point x="108" y="427" type="curve" smooth="yes"/>
      <point x="113" y="409"/>
      <point x="115" y="357"/>
      <point x="115" y="280" type="curve" smooth="yes"/>
      <point x="115" y="-68" type="line" smooth="yes"/>
      <point x="115" y="-179"/>
      <point x="93" y="-217"/>
      <point x="29" y="-217" type="curve" smooth="yes"/>
      <point x="-4" y="-217"/>
      <point x="-15" y="-207"/>
      <point x="-34" y="-167" type="curve" smooth="yes"/>
      <point x="-54" y="-127"/>
      <point x="-62" y="-120"/>
      <point x="-86" y="-120" type="curve" smooth="yes"/>
      <point x="-118" y="-120"/>
      <point x="-137" y="-137"/>
      <point x="-137" y="-167" type="curve" smooth="yes"/>
      <point x="-137" y="-222"/>
      <point x="-77" y="-260"/>
      <point x="8" y="-260" type="curve" smooth="yes"/>
      <point x="140" y="-260"/>
      <point x="213" y="-168"/>
      <point x="213" y="-2" type="curve" smooth="yes"/>
    </contour>
    <contour>
      <point x="100" y="743" type="curve" smooth="yes"/>
      <point x="100" y="708"/>
      <point x="127" y="681"/>
      <point x="162" y="681" type="curve" smooth="yes"/>
      <point x="197" y="681"/>
      <point x="224" y="708"/>
      <point x="224" y="743" type="curve" smooth="yes"/>
      <point x="224" y="778"/>
      <point x="197" y="805"/>
      <point x="162" y="805" type="curve" smooth="yes"/>
      <point x="127" y="805"/>
      <point x="100" y="778"/>
    </contour>
  </outline>
</glyph>
<glyph name="p" format="1">
  <advance width="679"/>
  <unicode hex="0070"/>
  <outline>
    <contour>
      <point x="210" y="536" type="line"/>
      <point x="18" y="498" type="line"/>
      <point x="18" y="464" type="line"/>
      <point x="84" y="464"/>
      <point x="103" y="455"/>
      <point x="109" y="423" type="curve" smooth="yes"/>
      <point x="114" y="405"/>
      <point x="116" y="354"/>
      <point x="116" y="277" type="curve" smooth="yes"/>
      <point x="116" y="-97" type="line" smooth="yes"/>
      <point x="116" y="-193"/>
      <point x="100" y="-212"/>
      <point x="20" y="-215" type="curve"/>
      <point x="20" y="-250" type="line"/>
      <point x="328" y="-250" type="line"/>
      <point x="328" y="-215" type="line"/>
      <point x="229" y="-212"/>
      <point x="214" y="-196"/>
      <point x="214" y="-90" type="curve" smooth="yes"/>
      <point x="214" y="56" type="line"/>
      <point x="258" y="9"/>
      <point x="307" y="-10"/>
      <point x="368" y="-10" type="curve" smooth="yes"/>
      <point x="517" y="-10"/>
      <point x="630" y="101"/>
      <point x="630" y="264" type="curve" smooth="yes"/>
      <point x="630" y="424"/>
      <point x="520" y="540"/>
      <point x="369" y="540" type="curve" smooth="yes"/>
      <point x="304" y="540"/>
      <point x="256" y="509"/>
      <point x="214" y="458" type="curve"/>
      <point x="210" y="458" type="line"/>
    </contour>
    <contour>
      <point x="240" y="429" type="curve" smooth="yes"/>
      <point x="266" y="469"/>
      <point x="309" y="492"/>
      <point x="357" y="492" type="curve" smooth="yes"/>
      <point x="453" y="492"/>
      <point x="517" y="398"/>
      <point x="517" y="260" type="curve" smooth="yes"/>
      <point x="517" y="121"/>
      <point x="454" y="39"/>
      <point x="363" y="39" type="curve" smooth="yes"/>
      <point x="317" y="39"/>
      <point x="272" y="64"/>
      <point x="241" y="106" type="curve" smooth="yes"/>
      <point x="220" y="133"/>
      <point x="214" y="160"/>
      <point x="214" y="232" type="curve" smooth="yes"/>
      <point x="214" y="310" type="line" smooth="yes"/>
      <point x="214" y="368"/>
      <point x="223" y="402"/>
    </contour>
  </outline>
</glyph>
<glyph name="q" format="1">
  <advance width="653"/>
  <unicode hex="0071"/>
  <outline>
    <contour>
      <point x="464" y="232" type="line"/>
      <point x="464" y="180"/>
      <point x="456" y="139"/>
      <point x="442" y="111" type="curve" smooth="yes"/>
      <point x="419" y="65"/>
      <point x="372" y="38"/>
      <point x="318" y="38" type="curve" smooth="yes"/>
      <point x="222" y="38"/>
      <point x="161" y="126"/>
      <point x="161" y="265" type="curve" smooth="yes"/>
      <point x="161" y="402"/>
      <point x="222" y="491"/>
      <point x="317" y="491" type="curve" smooth="yes"/>
      <point x="401" y="491"/>
      <point x="464" y="419"/>
      <point x="464" y="320" type="curve"/>
    </contour>
    <contour>
      <point x="467" y="-97" type="line" smooth="yes"/>
      <point x="467" y="-188"/>
      <point x="445" y="-213"/>
      <point x="360" y="-215" type="curve"/>
      <point x="360" y="-250" type="line"/>
      <point x="665" y="-250" type="line"/>
      <point x="665" y="-215" type="line"/>
      <point x="570" y="-212"/>
      <point x="562" y="-201"/>
      <point x="562" y="-90" type="curve" smooth="yes"/>
      <point x="562" y="528" type="line"/>
      <point x="537" y="528" type="line"/>
      <point x="493" y="459" type="line"/>
      <point x="449" y="508"/>
      <point x="377" y="540"/>
      <point x="306" y="540" type="curve" smooth="yes"/>
      <point x="163" y="540"/>
      <point x="48" y="415"/>
      <point x="48" y="258" type="curve" smooth="yes"/>
      <point x="48" y="100"/>
      <point x="152" y="-10"/>
      <point x="300" y="-10" type="curve" smooth="yes"/>
      <point x="370" y="-10"/>
      <point x="416" y="14"/>
      <point x="463" y="72" type="curve"/>
      <point x="467" y="72" type="line"/>
    </contour>
  </outline>
</glyph>
<glyph name="x" format="1">
  <advance width="609"/>
  <unicode hex="0078"/>
  <outline>
    <contour>
      <point x="324" y="324" type="line"/>
      <point x="252" y="429" type="line" smooth="yes"/>
      <point x="240" y="446"/>
      <point x="233" y="460"/>
      <point x="233" y="471" type="curve" smooth="yes"/>
      <point x="233" y="486"/>
      <point x="248" y="495"/>
      <point x="284" y="495" type="curve"/>
      <point x="284" y="530" type="line"/>
      <point x="38" y="530" type="line"/>
      <point x="38" y="495" type="line"/>
      <point x="76" y="495"/>
      <point x="98" y="483"/>
      <point x="128" y="440" type="curve" smooth="yes"/>
      <point x="261" y="251" type="line"/>
      <point x="159" y="126" type="line" smooth="yes"/>
      <point x="100" y="53"/>
      <point x="72" y="35"/>
      <point x="10" y="35" type="curve"/>
      <point x="10" y="0" type="line"/>
      <point x="239" y="0" type="line"/>
      <point x="239" y="35" type="line"/>
      <point x="204" y="35"/>
      <point x="189" y="49"/>
      <point x="189" y="68" type="curve" smooth="yes"/>
      <point x="189" y="79"/>
      <point x="194" y="92"/>
      <point x="204" y="104" type="curve" smooth="yes"/>
      <point x="289" y="212" type="line"/>
      <point x="359" y="122" type="line" smooth="yes"/>
      <point x="385" y="88"/>
      <point x="396" y="71"/>
      <point x="396" y="62" type="curve" smooth="yes"/>
      <point x="396" y="41"/>
      <point x="380" y="35"/>
      <point x="332" y="35" type="curve"/>
      <point x="332" y="0" type="line"/>
      <point x="598" y="0" type="line"/>
      <point x="598" y="35" type="line"/>
      <point x="558" y="35"/>
      <point x="525" y="55"/>
      <point x="484" y="109" type="curve" smooth="yes"/>
      <point x="351" y="284" type="line"/>
      <point x="454" y="415" type="line" smooth="yes"/>
      <point x="502" y="477"/>
      <point x="528" y="495"/>
      <point x="576" y="495" type="curve"/>
      <point x="576" y="530" type="line"/>
      <point x="357" y="530" type="line"/>
      <point x="357" y="495" type="line"/>
      <point x="395" y="495"/>
      <point x="416" y="484"/>
      <point x="416" y="463" type="curve" smooth="yes"/>
      <point x="416" y="450"/>
      <point x="408" y="432"/>
      <point x="392" y="412" type="curve" smooth="yes"/>
    </contour>
  </outline>
</glyph>
<glyph name="y" format="1">
  <advance width="639"/>
  <unicode hex="0079"/>
  <outline>
    <contour>
      <point x="349" y="651" type="move" name="top"/>
    </contour>
    <contour>
      <point x="499" y="328" type="line" smooth="yes"/>
      <point x="564" y="477"/>
      <point x="578" y="495"/>
      <point x="628" y="495" type="curve"/>
      <point x="628" y="530" type="line"/>
      <point x="408" y="530" type="line"/>
      <point x="408" y="495" type="line"/>
      <point x="463" y="495"/>
      <point x="478" y="486"/>
      <point x="478" y="451" type="curve" smooth="yes"/>
      <point x="478" y="429"/>
      <point x="472" y="410"/>
      <point x="436" y="323" type="curve" smooth="yes"/>
      <point x="345" y="98" type="line"/>
      <point x="340" y="98" type="line"/>
      <point x="230" y="364" type="line" smooth="yes"/>
      <point x="214" y="403"/>
      <point x="202" y="445"/>
      <point x="202" y="462" type="curve" smooth="yes"/>
      <point x="202" y="485"/>
      <point x="223" y="495"/>
      <point x="269" y="495" type="curve"/>
      <point x="269" y="530" type="line"/>
      <point x="4" y="530" type="line"/>
      <point x="4" y="495" type="line"/>
      <point x="57" y="491"/>
      <point x="69" y="480"/>
      <point x="103" y="406" type="curve" smooth="yes"/>
      <point x="295" y="-11" type="line"/>
      <point x="260" y="-81" type="line" smooth="yes"/>
      <point x="235" y="-131"/>
      <point x="212" y="-148"/>
      <point x="157" y="-157" type="curve" smooth="yes"/>
      <point x="94" y="-167"/>
      <point x="75" y="-180"/>
      <point x="75" y="-213" type="curve" smooth="yes"/>
      <point x="75" y="-245"/>
      <point x="96" y="-260"/>
      <point x="138" y="-260" type="curve" smooth="yes"/>
      <point x="201" y="-260"/>
      <point x="251" y="-224"/>
      <point x="281" y="-157" type="curve" smooth="yes"/>
    </contour>
  </outline>
</glyph>
<glyph name="braceright" format="1">
  <advance width="335"/>
  <unicode hex="007D"/>
  <outline>
    <contour>
      <point x="127" y="0" type="line"/>
      <point x="127" y="-72"/>
      <point x="109" y="-109"/>
      <point x="41" y="-128" type="curve"/>
      <point x="41" y="-150" type="line"/>
      <point x="175" y="-150"/>
      <point x="217" y="-117"/>
      <point x="217" y="4" type="curve" smooth="yes"/>
      <point x="217" y="200" type="line" smooth="yes"/>
      <point x="217" y="260"/>
      <point x="238" y="324"/>
      <point x="306" y="330" type="curve"/>
      <point x="306" y="355" type="line"/>
      <point x="231" y="370"/>
      <point x="217" y="408"/>
      <point x="217" y="484" type="curve" smooth="yes"/>
      <point x="217" y="659" type="line" smooth="yes"/>
      <point x="217" y="786"/>
      <point x="187" y="830"/>
      <point x="45" y="830" type="curve"/>
      <point x="45" y="807" type="line"/>
      <point x="107" y="791"/>
      <point x="127" y="751"/>
      <point x="127" y="680" type="curve" smooth="yes"/>
      <point x="127" y="501" type="line" smooth="yes"/>
      <point x="127" y="419"/>
      <point x="140" y="363"/>
      <point x="225" y="345" type="curve"/>
      <point x="225" y="340" type="line"/>
      <point x="144" y="326"/>
      <point x="127" y="278"/>
      <point x="127" y="198" type="curve" smooth="yes"/>
    </contour>
  </outline>
</glyph>
<glyph name="asciitilde" format="1">
  <advance width="553"/>
  <unicode hex="007E"/>
  <outline>
    <contour>
      <point x="118" y="249" type="line"/>
      <point x="127" y="279"/>
      <point x="138" y="289"/>
      <point x="163" y="289" type="curve" smooth="yes"/>
      <point x="228" y="289"/>
      <point x="310" y="241"/>
      <point x="367" y="241" type="curve" smooth="yes"/>
      <point x="419" y="241"/>
      <point x="460" y="289"/>
      <point x="470" y="359" type="curve"/>
      <point x="437" y="359" type="line"/>
      <point x="427" y="327"/>
      <point x="416" y="317"/>
      <point x="391" y="317" type="curve" smooth="yes"/>
      <point x="329" y="317"/>
      <point x="251" y="363"/>
      <point x="194" y="363" type="curve" smooth="yes"/>
      <point x="138" y="363"/>
      <point x="96" y="319"/>
      <point x="84" y="249" type="curve"/>
    </contour>
  </outline>
</glyph>
<glyph name="sterling" format="1">
  <advance width="680"/>
  <unicode hex="00A3"/>
  <outline>
    <contour>
      <point x="235" y="83" type="curve"/>
      <point x="214" y="58"/>
      <point x="186" y="45"/>
      <point x="153" y="45" type="curve" smooth="yes"/>
      <point x="122" y="45"/>
      <point x="103" y="55"/>
      <point x="103" y="77" type="curve" smooth="yes"/>
      <point x="103" y="97"/>
      <point x="121" y="109"/>
      <point x="147" y="109" type="curve" smooth="yes"/>
      <point x="173" y="109"/>
      <point x="202" y="99"/>
    </contour>
    <contour>
      <point x="288" y="534" type="line" smooth="yes"/>
      <point x="280" y="564"/>
      <point x="275" y="599"/>
      <point x="275" y="621" type="curve" smooth="yes"/>
      <point x="275" y="689"/>
      <point x="322" y="732"/>
      <point x="397" y="732" type="curve" smooth="yes"/>
      <point x="518" y="732"/>
      <point x="482" y="619"/>
      <point x="555" y="619" type="curve" smooth="yes"/>
      <point x="583" y="619"/>
      <point x="599" y="635"/>
      <point x="599" y="665" type="curve" smooth="yes"/>
      <point x="599" y="731"/>
      <point x="517" y="780"/>
      <point x="407" y="780" type="curve" smooth="yes"/>
      <point x="264" y="780"/>
      <point x="172" y="698"/>
      <point x="172" y="566" type="curve" smooth="yes"/>
      <point x="172" y="528"/>
      <point x="179" y="485"/>
      <point x="195" y="431" type="curve"/>
      <point x="75" y="431" type="line"/>
      <point x="75" y="370" type="line"/>
      <point x="214" y="370" type="line"/>
      <point x="238" y="306"/>
      <point x="255" y="234"/>
      <point x="255" y="194" type="curve" smooth="yes"/>
      <point x="255" y="178"/>
      <point x="253" y="149"/>
      <point x="249" y="134" type="curve"/>
      <point x="213" y="155"/>
      <point x="176" y="165"/>
      <point x="143" y="165" type="curve" smooth="yes"/>
      <point x="83" y="165"/>
      <point x="39" y="126"/>
      <point x="39" y="71" type="curve" smooth="yes"/>
      <point x="39" y="21"/>
      <point x="76" y="-11"/>
      <point x="134" y="-11" type="curve" smooth="yes"/>
      <point x="191" y="-11"/>
      <point x="254" y="19"/>
      <point x="280" y="59" type="curve"/>
      <point x="387" y="4"/>
      <point x="433" y="-10"/>
      <point x="488" y="-10" type="curve" smooth="yes"/>
      <point x="576" y="-10"/>
      <point x="634" y="39"/>
      <point x="634" y="154" type="curve"/>
      <point x="624" y="158" type="line"/>
      <point x="587" y="110"/>
      <point x="541" y="89"/>
      <point x="476" y="89" type="curve" smooth="yes"/>
      <point x="427" y="89"/>
      <point x="354" y="99"/>
      <point x="307" y="111" type="curve"/>
      <point x="330" y="154"/>
      <point x="341" y="204"/>
      <point x="341" y="270" type="curve" smooth="yes"/>
      <point x="341" y="306"/>
      <point x="338" y="330"/>
      <point x="327" y="370" type="curve"/>
      <point x="531" y="370" type="line"/>
      <point x="531" y="431" type="line"/>
      <point x="314" y="431" type="line"/>
    </contour>
  </outline>
</glyph>
<glyph name="currency" format="1">
  <advance width="613"/>
  <unicode hex="00A4"/>
  <outline>
    <contour>
      <point x="65" y="57" type="line"/>
      <point x="99" y="23" type="line"/>
      <point x="170" y="94" type="line"/>
      <point x="207" y="63"/>
      <point x="253" y="46"/>
      <point x="306" y="46" type="curve" smooth="yes"/>
      <point x="358" y="46"/>
      <point x="404" y="62"/>
      <point x="442" y="93" type="curve"/>
      <point x="513" y="22" type="line"/>
      <point x="548" y="57" type="line"/>
      <point x="477" y="128" type="line"/>
      <point x="507" y="165"/>
      <point x="524" y="211"/>
      <point x="524" y="263" type="curve" smooth="yes"/>
      <point x="524" y="315"/>
      <point x="507" y="361"/>
      <point x="476" y="399" type="curve"/>
      <point x="548" y="471" type="line"/>
      <point x="513" y="506" type="line"/>
      <point x="441" y="434" type="line"/>
      <point x="403" y="464"/>
      <point x="358" y="481"/>
      <point x="306" y="481" type="curve" smooth="yes"/>
      <point x="254" y="481"/>
      <point x="208" y="464"/>
      <point x="171" y="434" type="curve"/>
      <point x="99" y="506" type="line"/>
      <point x="64" y="471" type="line"/>
      <point x="136" y="399" type="line"/>
      <point x="105" y="361"/>
      <point x="89" y="315"/>
      <point x="89" y="263" type="curve" smooth="yes"/>
      <point x="89" y="211"/>
      <point x="106" y="165"/>
      <point x="136" y="128" type="curve"/>
    </contour>
    <contour>
      <point x="139" y="263" type="curve" smooth="yes"/>
      <point x="139" y="355"/>
      <point x="214" y="431"/>
      <point x="306" y="431" type="curve" smooth="yes"/>
      <point x="398" y="431"/>
      <point x="474" y="355"/>
      <point x="474" y="263" type="curve" smooth="yes"/>
      <point x="474" y="171"/>
      <point x="398" y="96"/>
      <point x="306" y="96" type="curve" smooth="yes"/>
      <point x="214" y="96"/>
      <point x="139" y="171"/>
    </contour>
  </outline>
</glyph>
<glyph name="yen" format="1">
  <advance width="802"/>
  <unicode hex="00A5"/>
  <outline>
    <contour>
      <point x="626" y="235" type="line"/>
      <point x="454" y="235" type="line"/>
      <point x="454" y="304" type="line"/>
      <point x="626" y="304" type="line"/>
      <point x="626" y="364" type="line"/>
      <point x="487" y="364" type="line"/>
      <point x="608" y="568" type="line" smooth="yes"/>
      <point x="690" y="706"/>
      <point x="716" y="732"/>
      <point x="772" y="732" type="curve"/>
      <point x="772" y="770" type="line"/>
      <point x="543" y="770" type="line"/>
      <point x="543" y="732" type="line"/>
      <point x="591" y="732"/>
      <point x="608" y="723"/>
      <point x="608" y="698" type="curve" smooth="yes"/>
      <point x="608" y="673"/>
      <point x="591" y="634"/>
      <point x="549" y="563" type="curve" smooth="yes"/>
      <point x="436" y="373" type="line"/>
      <point x="432" y="373" type="line"/>
      <point x="277" y="638" type="line" smooth="yes"/>
      <point x="261" y="665"/>
      <point x="254" y="685"/>
      <point x="254" y="698" type="curve" smooth="yes"/>
      <point x="254" y="723"/>
      <point x="269" y="732"/>
      <point x="345" y="732" type="curve"/>
      <point x="345" y="770" type="line"/>
      <point x="30" y="770" type="line"/>
      <point x="30" y="732" type="line"/>
      <point x="85" y="732"/>
      <point x="108" y="715"/>
      <point x="149" y="646" type="curve" smooth="yes"/>
      <point x="314" y="364" type="line"/>
      <point x="172" y="364" type="line"/>
      <point x="172" y="304" type="line"/>
      <point x="349" y="304" type="line"/>
      <point x="349" y="235" type="line"/>
      <point x="172" y="235" type="line"/>
      <point x="172" y="175" type="line"/>
      <point x="349" y="175" type="line"/>
      <point x="348" y="59"/>
      <point x="333" y="38"/>
      <point x="239" y="38" type="curve"/>
      <point x="239" y="0" type="line"/>
      <point x="563" y="0" type="line"/>
      <point x="563" y="38" type="line"/>
      <point x="470" y="38"/>
      <point x="455" y="58"/>
      <point x="454" y="175" type="curve"/>
      <point x="626" y="175" type="line"/>
    </contour>
  </outline>
</glyph>
<glyph name="dieresis" format="1">
  <advance width="323"/>
  <unicode hex="00A8"/>
  <outline>
    <contour>
      <point x="161" y="651" type="move" name="_top"/>
    </contour>
    <contour>
      <point x="20" y="709" type="curve" smooth="yes"/>
      <point x="20" y="676"/>
      <point x="45" y="651"/>
      <point x="78" y="651" type="curve" smooth="yes"/>
      <point x="111" y="651"/>
      <point x="136" y="676"/>
      <point x="136" y="709" type="curve" smooth="yes"/>
      <point x="136" y="742"/>
      <point x="111" y="767"/>
      <point x="78" y="767" type="curve" smooth="yes"/>
      <point x="45" y="767"/>
      <point x="20" y="742"/>
    </contour>
    <contour>
      <point x="187" y="709" type="curve" smooth="yes"/>
      <point x="187" y="676"/>
      <point x="212" y="651"/>
      <point x="245" y="651" type="curve" smooth="yes"/>
      <point x="278" y="651"/>
      <point x="303" y="676"/>
      <point x="303" y="709" type="curve" smooth="yes"/>
      <point x="303" y="742"/>
      <point x="278" y="767"/>
      <point x="245" y="767" type="curve" smooth="yes"/>
      <point x="212" y="767"/>
      <point x="187" y="742"/>
    </contour>
  </outline>
</glyph>
<glyph name="copyright" format="1">
  <advance width="888"/>
  <unicode hex="00A9"/>
  <outline>
    <contour>
      <point x="831" y="386" type="curve" smooth="yes"/>
      <point x="831" y="605"/>
      <point x="657" y="780"/>
      <point x="441" y="780" type="curve" smooth="yes"/>
      <point x="228" y="780"/>
      <point x="57" y="602"/>
      <point x="57" y="385" type="curve" smooth="yes"/>
      <point x="57" y="168"/>
      <point x="229" y="-10"/>
      <point x="442" y="-10" type="curve" smooth="yes"/>
      <point x="657" y="-10"/>
      <point x="831" y="166"/>
    </contour>
    <contour>
      <point x="783" y="386" type="curve" smooth="yes"/>
      <point x="783" y="194"/>
      <point x="630" y="38"/>
      <point x="442" y="38" type="curve" smooth="yes"/>
      <point x="254" y="38"/>
      <point x="105" y="194"/>
      <point x="105" y="385" type="curve" smooth="yes"/>
      <point x="105" y="575"/>
      <point x="253" y="732"/>
      <point x="441" y="732" type="curve" smooth="yes"/>
      <point x="630" y="732"/>
      <point x="783" y="579"/>
    </contour>
    <contour>
      <point x="584" y="305" type="line"/>
      <point x="565" y="235"/>
      <point x="522" y="198"/>
      <point x="457" y="198" type="curve" smooth="yes"/>
      <point x="364" y="198"/>
      <point x="313" y="262"/>
      <point x="313" y="379" type="curve" smooth="yes"/>
      <point x="313" y="498"/>
      <point x="365" y="569"/>
      <point x="455" y="569" type="curve" smooth="yes"/>
      <point x="520" y="569"/>
      <point x="570" y="532"/>
      <point x="586" y="472" type="curve"/>
      <point x="612" y="472" type="line"/>
      <point x="607" y="603" type="line"/>
      <point x="586" y="603" type="line"/>
      <point x="576" y="568" type="line"/>
      <point x="530" y="597"/>
      <point x="494" y="609"/>
      <point x="450" y="609" type="curve" smooth="yes"/>
      <point x="317" y="609"/>
      <point x="226" y="514"/>
      <point x="226" y="375" type="curve" smooth="yes"/>
      <point x="226" y="243"/>
      <point x="311" y="157"/>
      <point x="444" y="157" type="curve" smooth="yes"/>
      <point x="543" y="157"/>
      <point x="598" y="217"/>
      <point x="617" y="305" type="curve"/>
    </contour>
  </outline>
</glyph>
<glyph name="ordfeminine" format="1">
  <advance width="378"/>
  <unicode hex="00AA"/>
  <outline>
    <contour>
      <point x="218" y="620" type="line" smooth="yes"/>
      <point x="218" y="578"/>
      <point x="191" y="542"/>
      <point x="160" y="542" type="curve" smooth="yes"/>
      <point x="139" y="542"/>
      <point x="125" y="558"/>
      <point x="125" y="580" type="curve" smooth="yes"/>
      <point x="125" y="605"/>
      <point x="150" y="629"/>
      <point x="218" y="654" type="curve"/>
    </contour>
    <contour>
      <point x="148" y="651" type="line" smooth="yes"/>
      <point x="84" y="623"/>
      <point x="63" y="600"/>
      <point x="63" y="566" type="curve" smooth="yes"/>
      <point x="63" y="531"/>
      <point x="91" y="507"/>
      <point x="135" y="507" type="curve" smooth="yes"/>
      <point x="171" y="507"/>
      <point x="202" y="526"/>
      <point x="219" y="555" type="curve"/>
      <point x="223" y="555" type="line"/>
      <point x="223" y="524"/>
      <point x="237" y="507"/>
      <point x="267" y="507" type="curve" smooth="yes"/>
      <point x="292" y="507"/>
      <point x="318" y="518"/>
      <point x="327" y="534" type="curve"/>
      <point x="320" y="546" type="line"/>
      <point x="314" y="537"/>
      <point x="305" y="533"/>
      <point x="296" y="533" type="curve" smooth="yes"/>
      <point x="281" y="533"/>
      <point x="274" y="553"/>
      <point x="274" y="591" type="curve" smooth="yes"/>
      <point x="274" y="703" type="line" smooth="yes"/>
      <point x="274" y="759"/>
      <point x="248" y="780"/>
      <point x="177" y="780" type="curve" smooth="yes"/>
      <point x="112" y="780"/>
      <point x="72" y="757"/>
      <point x="72" y="730" type="curve" smooth="yes"/>
      <point x="72" y="710"/>
      <point x="81" y="701"/>
      <point x="97" y="701" type="curve" smooth="yes"/>
      <point x="109" y="701"/>
      <point x="119" y="708"/>
      <point x="123" y="725" type="curve" smooth="yes"/>
      <point x="129" y="751"/>
      <point x="139" y="756"/>
      <point x="168" y="756" type="curve" smooth="yes"/>
      <point x="203" y="756"/>
      <point x="218" y="739"/>
      <point x="218" y="701" type="curve" smooth="yes"/>
      <point x="218" y="682" type="line"/>
    </contour>
  </outline>
</glyph>
<glyph name="uni00AD" format="1">
  <advance width="463"/>
  <unicode hex="00AD"/>
  <outline>
    <contour>
      <point x="386" y="248" type="line"/>
      <point x="386" y="331" type="line"/>
      <point x="77" y="331" type="line"/>
      <point x="77" y="248" type="line"/>
    </contour>
  </outline>
</glyph>
<glyph name="degree" format="1">
  <advance width="346"/>
  <unicode hex="00B0"/>
  <outline>
    <contour>
      <point x="53" y="660" type="curve" smooth="yes"/>
      <point x="53" y="594"/>
      <point x="107" y="540"/>
      <point x="173" y="540" type="curve" smooth="yes"/>
      <point x="239" y="540"/>
      <point x="293" y="594"/>
      <point x="293" y="660" type="curve" smooth="yes"/>
      <point x="293" y="726"/>
      <point x="239" y="780"/>
      <point x="173" y="780" type="curve" smooth="yes"/>
      <point x="107" y="780"/>
      <point x="53" y="726"/>
    </contour>
    <contour>
      <point x="83" y="660" type="curve" smooth="yes"/>
      <point x="83" y="709"/>
      <point x="124" y="749"/>
      <point x="173" y="749" type="curve" smooth="yes"/>
      <point x="222" y="749"/>
      <point x="262" y="709"/>
      <point x="262" y="660" type="curve" smooth="yes"/>
      <point x="262" y="611"/>
      <point x="222" y="570"/>
      <point x="173" y="570" type="curve" smooth="yes"/>
      <point x="124" y="570"/>
      <point x="83" y="611"/>
    </contour>
  </outline>
</glyph>
<glyph name="plusminus" format="1">
  <advance width="634"/>
  <unicode hex="00B1"/>
  <outline>
    <contour>
      <point x="343" y="234" type="line"/>
      <point x="343" y="443" type="line"/>
      <point x="551" y="443" type="line"/>
      <point x="551" y="493" type="line"/>
      <point x="343" y="493" type="line"/>
      <point x="343" y="702" type="line"/>
      <point x="291" y="702" type="line"/>
      <point x="291" y="493" type="line"/>
      <point x="83" y="493" type="line"/>
      <point x="83" y="443" type="line"/>
      <point x="291" y="443" type="line"/>
      <point x="291" y="234" type="line"/>
    </contour>
    <contour>
      <point x="551" y="145" type="line"/>
      <point x="83" y="145" type="line"/>
      <point x="83" y="95" type="line"/>
      <point x="551" y="95" type="line"/>
    </contour>
  </outline>
</glyph>
<glyph name="twosuperior" format="1">
  <advance width="285"/>
  <unicode hex="00B2"/>
  <outline>
    <contour>
      <point x="97" y="511" type="line"/>
      <point x="175" y="569"/>
      <point x="238" y="628"/>
      <point x="238" y="694" type="curve" smooth="yes"/>
      <point x="238" y="744"/>
      <point x="196" y="780"/>
      <point x="137" y="780" type="curve" smooth="yes"/>
      <point x="80" y="780"/>
      <point x="38" y="745"/>
      <point x="38" y="697" type="curve" smooth="yes"/>
      <point x="38" y="662"/>
      <point x="60" y="637"/>
      <point x="89" y="637" type="curve" smooth="yes"/>
      <point x="109" y="637"/>
      <point x="123" y="648"/>
      <point x="125" y="663" type="curve"/>
      <point x="99" y="663"/>
      <point x="81" y="680"/>
      <point x="81" y="706" type="curve" smooth="yes"/>
      <point x="81" y="735"/>
      <point x="102" y="757"/>
      <point x="130" y="757" type="curve" smooth="yes"/>
      <point x="164" y="757"/>
      <point x="185" y="733"/>
      <point x="185" y="694" type="curve" smooth="yes"/>
      <point x="185" y="638"/>
      <point x="156" y="590"/>
      <point x="34" y="481" type="curve"/>
      <point x="34" y="468" type="line"/>
      <point x="235" y="468" type="line"/>
      <point x="250" y="553" type="line"/>
      <point x="230" y="553" type="line"/>
      <point x="219" y="516"/>
      <point x="208" y="507"/>
      <point x="182" y="507" type="curve" smooth="yes"/>
      <point x="97" y="507" type="line"/>
    </contour>
  </outline>
</glyph>
<glyph name="paragraph" format="1">
  <advance width="631"/>
  <unicode hex="00B6"/>
  <outline>
    <contour>
      <point x="473" y="573" type="line" smooth="yes"/>
      <point x="473" y="645"/>
      <point x="476" y="675"/>
      <point x="484" y="696" type="curve" smooth="yes"/>
      <point x="496" y="724"/>
      <point x="517" y="732"/>
      <point x="582" y="732" type="curve"/>
      <point x="582" y="770" type="line"/>
      <point x="306" y="770" type="line" smooth="yes"/>
      <point x="131" y="770"/>
      <point x="36" y="697"/>
      <point x="36" y="564" type="curve" smooth="yes"/>
      <point x="36" y="443"/>
      <point x="111" y="372"/>
      <point x="238" y="372" type="curve" smooth="yes"/>
      <point x="253" y="372"/>
      <point x="261" y="373"/>
      <point x="272" y="373" type="curve"/>
      <point x="272" y="63" type="line" smooth="yes"/>
      <point x="272" y="-2"/>
      <point x="267" y="-71"/>
      <point x="262" y="-88" type="curve" smooth="yes"/>
      <point x="253" y="-116"/>
      <point x="223" y="-127"/>
      <point x="153" y="-127" type="curve"/>
      <point x="153" y="-165" type="line"/>
      <point x="347" y="-165" type="line"/>
      <point x="347" y="726" type="line"/>
      <point x="399" y="726" type="line"/>
      <point x="399" y="-165" type="line"/>
      <point x="582" y="-165" type="line"/>
      <point x="582" y="-127" type="line"/>
      <point x="521" y="-127"/>
      <point x="495" y="-117"/>
      <point x="486" y="-91" type="curve" smooth="yes"/>
      <point x="478" y="-70"/>
      <point x="473" y="-12"/>
      <point x="473" y="63" type="curve" smooth="yes"/>
    </contour>
  </outline>
</glyph>
<glyph name="periodcentered" format="1">
  <advance width="285"/>
  <unicode hex="00B7"/>
  <outline>
    <contour>
      <point x="77" y="274" type="curve" smooth="yes"/>
      <point x="77" y="238"/>
      <point x="106" y="209"/>
      <point x="142" y="209" type="curve" smooth="yes"/>
      <point x="179" y="209"/>
      <point x="208" y="238"/>
      <point x="208" y="274" type="curve" smooth="yes"/>
      <point x="208" y="311"/>
      <point x="179" y="340"/>
      <point x="142" y="340" type="curve" smooth="yes"/>
      <point x="106" y="340"/>
      <point x="77" y="311"/>
    </contour>
  </outline>
</glyph>
<glyph name="cedilla" format="1">
  <advance width="232"/>
  <unicode hex="00B8"/>
  <outline>
    <contour>
      <point x="122" y="0" type="move" name="_bottom"/>
    </contour>
    <contour>
      <point x="154" y="12" type="line"/>
      <point x="101" y="12" type="line"/>
      <point x="48" y="-110" type="line"/>
      <point x="51" y="-115" type="line"/>
      <point x="61" y="-114"/>
      <point x="76" y="-113"/>
      <point x="86" y="-113" type="curve" smooth="yes"/>
      <point x="137" y="-113"/>
      <point x="165" y="-132"/>
      <point x="165" y="-167" type="curve" smooth="yes"/>
      <point x="165" y="-197"/>
      <point x="144" y="-217"/>
      <point x="115" y="-217" type="curve" smooth="yes"/>
      <point x="93" y="-217"/>
      <point x="82" y="-208"/>
      <point x="70" y="-180" type="curve" smooth="yes"/>
      <point x="58" y="-155"/>
      <point x="51" y="-148"/>
      <point x="37" y="-148" type="curve" smooth="yes"/>
      <point x="18" y="-148"/>
      <point x="6" y="-161"/>
      <point x="6" y="-184" type="curve" smooth="yes"/>
      <point x="6" y="-229"/>
      <point x="53" y="-260"/>
      <point x="121" y="-260" type="curve" smooth="yes"/>
      <point x="198" y="-260"/>
      <point x="247" y="-221"/>
      <point x="247" y="-158" type="curve" smooth="yes"/>
      <point x="247" y="-100"/>
      <point x="206" y="-72"/>
      <point x="123" y="-72" type="curve"/>
    </contour>
  </outline>
</glyph>
<glyph name="onesuperior" format="1">
  <advance width="246"/>
  <unicode hex="00B9"/>
  <outline>
    <contour>
      <point x="147" y="780" type="line"/>
      <point x="119" y="771"/>
      <point x="87" y="764"/>
      <point x="59" y="763" type="curve"/>
      <point x="59" y="743" type="line"/>
      <point x="86" y="743"/>
      <point x="99" y="741"/>
      <point x="101" y="730" type="curve" smooth="yes"/>
      <point x="103" y="725"/>
      <point x="103" y="703"/>
      <point x="103" y="672" type="curve" smooth="yes"/>
      <point x="103" y="535" type="line" smooth="yes"/>
      <point x="103" y="497"/>
      <point x="97" y="490"/>
      <point x="61" y="488" type="curve"/>
      <point x="61" y="468" type="line"/>
      <point x="189" y="468" type="line"/>
      <point x="189" y="488" type="line"/>
      <point x="153" y="489"/>
      <point x="147" y="497"/>
      <point x="147" y="538" type="curve" smooth="yes"/>
    </contour>
  </outline>
</glyph>
<glyph name="ordmasculine" format="1">
  <advance width="383"/>
  <unicode hex="00BA"/>
  <outline>
    <contour>
      <point x="190" y="780" type="curve" smooth="yes"/>
      <point x="116" y="780"/>
      <point x="53" y="723"/>
      <point x="53" y="645" type="curve" smooth="yes"/>
      <point x="53" y="565"/>
      <point x="116" y="507"/>
      <point x="190" y="507" type="curve" smooth="yes"/>
      <point x="265" y="507"/>
      <point x="330" y="565"/>
      <point x="330" y="645" type="curve" smooth="yes"/>
      <point x="330" y="723"/>
      <point x="265" y="780"/>
    </contour>
    <contour>
      <point x="190" y="754" type="curve" smooth="yes"/>
      <point x="235" y="754"/>
      <point x="265" y="709"/>
      <point x="265" y="645" type="curve" smooth="yes"/>
      <point x="265" y="578"/>
      <point x="235" y="534"/>
      <point x="190" y="534" type="curve" smooth="yes"/>
      <point x="146" y="534"/>
      <point x="117" y="578"/>
      <point x="117" y="645" type="curve" smooth="yes"/>
      <point x="117" y="709"/>
      <point x="147" y="754"/>
    </contour>
  </outline>
</glyph>
<glyph name="guillemotright" format="1">
  <advance width="489"/>
  <unicode hex="00BB"/>
  <outline>
    <contour>
      <point x="440" y="262" type="line"/>
      <point x="270" y="421" type="line"/>
      <point x="250" y="400" type="line"/>
      <point x="349" y="262" type="line"/>
      <point x="251" y="124" type="line"/>
      <point x="270" y="104" type="line"/>
    </contour>
    <contour>
      <point x="269" y="262" type="line"/>
      <point x="99" y="421" type="line"/>
      <point x="79" y="400" type="line"/>
      <point x="178" y="262" type="line"/>
      <point x="80" y="124" type="line"/>
      <point x="99" y="104" type="line"/>
    </contour>
  </outline>
</glyph>
<glyph name="questiondown" format="1">
  <advance width="399"/>
  <unicode hex="00BF"/>
  <outline>
    <contour>
      <point x="219" y="533" type="line"/>
      <point x="219" y="400" type="line"/>
      <point x="117" y="400"/>
      <point x="58" y="341"/>
      <point x="58" y="240" type="curve" smooth="yes"/>
      <point x="58" y="109"/>
      <point x="158" y="-10"/>
      <point x="268" y="-10" type="curve" smooth="yes"/>
      <point x="308" y="-10"/>
      <point x="330" y="9"/>
      <point x="330" y="46" type="curve" smooth="yes"/>
      <point x="330" y="78"/>
      <point x="308" y="100"/>
      <point x="277" y="100" type="curve" smooth="yes"/>
      <point x="255" y="100"/>
      <point x="226" y="89"/>
      <point x="202" y="89" type="curve" smooth="yes"/>
      <point x="154" y="89"/>
      <point x="115" y="141"/>
      <point x="115" y="205" type="curve" smooth="yes"/>
      <point x="115" y="270"/>
      <point x="159" y="304"/>
      <point x="245" y="304" type="curve" smooth="yes"/>
      <point x="274" y="304" type="line"/>
      <point x="274" y="533" type="line"/>
    </contour>
    <contour>
      <point x="315" y="715" type="curve"/>
      <point x="315" y="751"/>
      <point x="286" y="780"/>
      <point x="250" y="780" type="curve" smooth="yes"/>
      <point x="213" y="780"/>
      <point x="184" y="751"/>
      <point x="184" y="715" type="curve" smooth="yes"/>
      <point x="184" y="678"/>
      <point x="213" y="649"/>
      <point x="250" y="649" type="curve" smooth="yes"/>
      <point x="286" y="649"/>
      <point x="315" y="678"/>
    </contour>
  </outline>
</glyph>
<glyph name="Oslash" format="1">
  <advance width="946"/>
  <unicode hex="00D8"/>
  <outline>
    <contour>
      <point x="473" y="780" type="curve" smooth="yes"/>
      <point x="239" y="780"/>
      <point x="57" y="605"/>
      <point x="57" y="379" type="curve" smooth="yes"/>
      <point x="57" y="262"/>
      <point x="110" y="158"/>
      <point x="196" y="87" type="curve"/>
      <point x="63" y="-81" type="line"/>
      <point x="131" y="-81" type="line"/>
      <point x="239" y="56" type="line"/>
      <point x="306" y="14"/>
      <point x="386" y="-10"/>
      <point x="473" y="-10" type="curve" smooth="yes"/>
      <point x="705" y="-10"/>
      <point x="889" y="162"/>
      <point x="889" y="379" type="curve" smooth="yes"/>
      <point x="889" y="506"/>
      <point x="831" y="616"/>
      <point x="740" y="689" type="curve"/>
      <point x="851" y="830" type="line"/>
      <point x="782" y="830" type="line"/>
      <point x="695" y="720" type="line"/>
      <point x="631" y="758"/>
      <point x="555" y="780"/>
    </contour>
    <contour>
      <point x="473" y="45" type="curve" smooth="yes"/>
      <point x="396" y="45"/>
      <point x="332" y="69"/>
      <point x="284" y="113" type="curve"/>
      <point x="688" y="623" type="line"/>
      <point x="734" y="563"/>
      <point x="759" y="479"/>
      <point x="759" y="376" type="curve" smooth="yes"/>
      <point x="759" y="173"/>
      <point x="648" y="45"/>
    </contour>
    <contour>
      <point x="187" y="376" type="curve" smooth="yes"/>
      <point x="187" y="590"/>
      <point x="297" y="725"/>
      <point x="473" y="725" type="curve" smooth="yes"/>
      <point x="544" y="725"/>
      <point x="604" y="703"/>
      <point x="650" y="663" type="curve"/>
      <point x="248" y="154" type="line"/>
      <point x="208" y="210"/>
      <point x="187" y="285"/>
    </contour>
  </outline>
</glyph>
<glyph name="eth" format="1">
  <advance width="640"/>
  <unicode hex="00F0"/>
  <outline>
    <contour>
      <point x="175" y="244" type="curve" smooth="yes"/>
      <point x="175" y="373"/>
      <point x="225" y="449"/>
      <point x="310" y="449" type="curve" smooth="yes"/>
      <point x="395" y="449"/>
      <point x="448" y="371"/>
      <point x="448" y="244" type="curve" smooth="yes"/>
      <point x="448" y="115"/>
      <point x="394" y="35"/>
      <point x="309" y="35" type="curve" smooth="yes"/>
      <point x="225" y="35"/>
      <point x="175" y="112"/>
    </contour>
    <contour>
      <point x="160" y="746" type="line"/>
      <point x="228" y="722"/>
      <point x="267" y="703"/>
      <point x="297" y="680" type="curve"/>
      <point x="176" y="609" type="line"/>
      <point x="200" y="577" type="line"/>
      <point x="330" y="652" type="line"/>
      <point x="388" y="597"/>
      <point x="429" y="520"/>
      <point x="456" y="414" type="curve"/>
      <point x="453" y="412" type="line"/>
      <point x="425" y="468"/>
      <point x="371" y="498"/>
      <point x="300" y="498" type="curve" smooth="yes"/>
      <point x="157" y="498"/>
      <point x="50" y="385"/>
      <point x="50" y="244" type="curve" smooth="yes"/>
      <point x="50" y="98"/>
      <point x="163" y="-10"/>
      <point x="308" y="-10" type="curve" smooth="yes"/>
      <point x="462" y="-10"/>
      <point x="575" y="122"/>
      <point x="575" y="308" type="curve" smooth="yes"/>
      <point x="575" y="459"/>
      <point x="507" y="605"/>
      <point x="390" y="687" type="curve"/>
      <point x="507" y="755" type="line"/>
      <point x="482" y="787" type="line"/>
      <point x="352" y="712" type="line"/>
      <point x="305" y="740"/>
      <point x="241" y="762"/>
      <point x="179" y="780" type="curve"/>
    </contour>
  </outline>
</glyph>
<glyph name="thorn" format="1">
  <advance width="654"/>
  <unicode hex="00FE"/>
  <outline>
    <contour>
      <point x="91" y="-97" type="line" smooth="yes"/>
      <point x="91" y="-193"/>
      <point x="77" y="-212"/>
      <point x="-3" y="-215" type="curve"/>
      <point x="-3" y="-250" type="line"/>
      <point x="305" y="-250" type="line"/>
      <point x="305" y="-215" type="line"/>
      <point x="206" y="-212"/>
      <point x="191" y="-196"/>
      <point x="191" y="-90" type="curve" smooth="yes"/>
      <point x="191" y="56" type="line"/>
      <point x="229" y="13"/>
      <point x="284" y="-11"/>
      <point x="348" y="-11" type="curve" smooth="yes"/>
      <point x="494" y="-11"/>
      <point x="606" y="108"/>
      <point x="606" y="265" type="curve" smooth="yes"/>
      <point x="606" y="420"/>
      <point x="495" y="540"/>
      <point x="351" y="540" type="curve" smooth="yes"/>
      <point x="284" y="540"/>
      <point x="234" y="515"/>
      <point x="191" y="459" type="curve"/>
      <point x="187" y="459" type="line"/>
      <point x="187" y="830" type="line"/>
      <point x="-1" y="790" type="line"/>
      <point x="-1" y="765" type="line"/>
      <point x="62" y="756"/>
      <point x="69" y="752"/>
      <point x="78" y="733" type="curve" smooth="yes"/>
      <point x="86" y="716"/>
      <point x="91" y="671"/>
      <point x="91" y="604" type="curve" smooth="yes"/>
    </contour>
    <contour>
      <point x="189" y="298" type="line" smooth="yes"/>
      <point x="189" y="350"/>
      <point x="197" y="391"/>
      <point x="211" y="419" type="curve" smooth="yes"/>
      <point x="234" y="465"/>
      <point x="279" y="493"/>
      <point x="333" y="493" type="curve" smooth="yes"/>
      <point x="427" y="493"/>
      <point x="493" y="398"/>
      <point x="493" y="262" type="curve" smooth="yes"/>
      <point x="493" y="127"/>
      <point x="430" y="37"/>
      <point x="337" y="37" type="curve" smooth="yes"/>
      <point x="251" y="37"/>
      <point x="189" y="109"/>
      <point x="189" y="209" type="curve" smooth="yes"/>
    </contour>
  </outline>
</glyph>
<glyph name="Hbar" format="1">
  <advance width="927"/>
  <unicode hex="0126"/>
  <outline>
    <contour>
      <point x="76" y="541" type="line"/>
      <point x="76" y="591" type="line"/>
      <point x="850" y="591" type="line"/>
      <point x="850" y="541" type="line"/>
    </contour>
    <component base="H" xOffset="1"/>
  </outline>
</glyph>
<glyph name="hbar" format="1">
  <advance width="688"/>
  <unicode hex="0127"/>
  <outline>
    <contour>
      <point x="302" y="598" type="line"/>
      <point x="302" y="651" type="line"/>
      <point x="23" y="651" type="line"/>
      <point x="23" y="598" type="line"/>
    </contour>
    <component base="h"/>
  </outline>
</glyph>
<glyph name="lacute" format="1">
  <advance width="325"/>
  <unicode hex="013A"/>
  <outline>
    <contour>
      <point x="209" y="810" type="line"/>
      <point x="20" y="773" type="line"/>
      <point x="20" y="739" type="line"/>
      <point x="84" y="739"/>
      <point x="103" y="731"/>
      <point x="110" y="700" type="curve" smooth="yes"/>
      <point x="114" y="683"/>
      <point x="116" y="632"/>
      <point x="116" y="560" type="curve" smooth="yes"/>
      <point x="116" y="149" type="line" smooth="yes"/>
      <point x="116" y="57"/>
      <point x="101" y="39"/>
      <point x="22" y="35" type="curve"/>
      <point x="22" y="0" type="line"/>
      <point x="298" y="0" type="line"/>
      <point x="298" y="35" type="line"/>
      <point x="221" y="38"/>
      <point x="209" y="55"/>
      <point x="209" y="156" type="curve" smooth="yes"/>
    </contour>
    <component base="acute.cap" xOffset="43"/>
  </outline>
</glyph>
<glyph name="lslash" format="1">
  <advance width="327"/>
  <unicode hex="0142"/>
  <outline>
    <contour>
      <point x="289" y="449" type="line"/>
      <point x="289" y="514" type="line"/>
      <point x="37" y="357" type="line"/>
      <point x="37" y="292" type="line"/>
    </contour>
    <component base="l" xOffset="1"/>
  </outline>
</glyph>
<glyph name="Eng" format="1">
  <advance width="902"/>
  <unicode hex="014A"/>
  <outline>
    <contour>
      <point x="694" y="-10" type="line"/>
      <point x="219" y="616" type="line"/>
      <point x="215" y="616" type="line"/>
      <point x="215" y="189" type="line" smooth="yes"/>
      <point x="215" y="57"/>
      <point x="229" y="41"/>
      <point x="314" y="38" type="curve"/>
      <point x="314" y="0" type="line"/>
      <point x="45" y="0" type="line"/>
      <point x="45" y="38" type="line"/>
      <point x="139" y="41"/>
      <point x="155" y="58"/>
      <point x="155" y="182" type="curve" smooth="yes"/>
      <point x="155" y="588" type="line" smooth="yes"/>
      <point x="155" y="701"/>
      <point x="141" y="728"/>
      <point x="55" y="732" type="curve"/>
      <point x="55" y="770" type="line"/>
      <point x="253" y="770" type="line"/>
      <point x="690" y="187" type="line"/>
      <point x="694" y="187" type="line"/>
      <point x="694" y="581" type="line" smooth="yes"/>
      <point x="694" y="713"/>
      <point x="680" y="729"/>
      <point x="595" y="732" type="curve"/>
      <point x="595" y="770" type="line"/>
      <point x="864" y="770" type="line"/>
      <point x="864" y="732" type="line"/>
      <point x="770" y="729"/>
      <point x="754" y="712"/>
      <point x="754" y="588" type="curve" smooth="yes"/>
      <point x="754" y="-10" type="line" smooth="yes"/>
      <point x="754" y="-172"/>
      <point x="679" y="-260"/>
      <point x="546" y="-260" type="curve" smooth="yes"/>
      <point x="455" y="-260"/>
      <point x="394" y="-221"/>
      <point x="394" y="-163" type="curve" smooth="yes"/>
      <point x="394" y="-129"/>
      <point x="413" y="-110"/>
      <point x="445" y="-110" type="curve" smooth="yes"/>
      <point x="470" y="-110"/>
      <point x="482" y="-120"/>
      <point x="502" y="-157" type="curve" smooth="yes"/>
      <point x="525" y="-200"/>
      <point x="538" y="-212"/>
      <point x="564" y="-212" type="curve" smooth="yes"/>
      <point x="646" y="-212"/>
      <point x="694" y="-150"/>
      <point x="694" y="-43" type="curve" smooth="yes"/>
    </contour>
  </outline>
</glyph>
<glyph name="OE" format="1">
  <advance width="1152"/>
  <unicode hex="0152"/>
  <outline>
    <contour>
      <point x="474" y="770" type="line" smooth="yes"/>
      <point x="240" y="770"/>
      <point x="58" y="599"/>
      <point x="58" y="379" type="curve" smooth="yes"/>
      <point x="58" y="168"/>
      <point x="239" y="0"/>
      <point x="471" y="0" type="curve" smooth="yes"/>
      <point x="1092" y="0" type="line"/>
      <point x="1107" y="197" type="line"/>
      <point x="1069" y="197" type="line"/>
      <point x="1043" y="79"/>
      <point x="993" y="43"/>
      <point x="852" y="43" type="curve" smooth="yes"/>
      <point x="726" y="43"/>
      <point x="686" y="70"/>
      <point x="686" y="157" type="curve" smooth="yes"/>
      <point x="686" y="383" type="line"/>
      <point x="822" y="382"/>
      <point x="875" y="360"/>
      <point x="875" y="265" type="curve"/>
      <point x="910" y="265" type="line"/>
      <point x="910" y="538" type="line"/>
      <point x="875" y="538" type="line"/>
      <point x="875" y="445"/>
      <point x="815" y="423"/>
      <point x="686" y="423" type="curve"/>
      <point x="686" y="710" type="line" smooth="yes"/>
      <point x="686" y="720"/>
      <point x="692" y="727"/>
      <point x="703" y="727" type="curve" smooth="yes"/>
      <point x="830" y="727" type="line" smooth="yes"/>
      <point x="966" y="727"/>
      <point x="1017" y="700"/>
      <point x="1033" y="594" type="curve"/>
      <point x="1068" y="594" type="line"/>
      <point x="1059" y="770" type="line"/>
    </contour>
    <contour>
      <point x="474" y="730" type="curve" smooth="yes"/>
      <point x="560" y="730"/>
      <point x="581" y="711"/>
      <point x="581" y="618" type="curve" smooth="yes"/>
      <point x="581" y="152" type="line" smooth="yes"/>
      <point x="581" y="58"/>
      <point x="568" y="42"/>
      <point x="474" y="42" type="curve" smooth="yes"/>
      <point x="298" y="42"/>
      <point x="188" y="170"/>
      <point x="188" y="376" type="curve" smooth="yes"/>
      <point x="188" y="595"/>
      <point x="298" y="730"/>
    </contour>
  </outline>
</glyph>
<glyph name="tbar" format="1">
  <advance width="381"/>
  <unicode hex="0167"/>
  <outline>
    <contour>
      <point x="322" y="328" type="line"/>
      <point x="322" y="381" type="line"/>
      <point x="43" y="381" type="line"/>
      <point x="43" y="328" type="line"/>
    </contour>
    <component base="t" xOffset="3"/>
  </outline>
</glyph>
<glyph name="florin" format="1">
  <advance width="667"/>
  <unicode hex="0192"/>
  <outline>
    <contour>
      <point x="65" y="-211" type="curve" smooth="yes"/>
      <point x="42" y="-211"/>
      <point x="31" y="-201"/>
      <point x="7" y="-158" type="curve" smooth="yes"/>
      <point x="-6" y="-135"/>
      <point x="-24" y="-124"/>
      <point x="-46" y="-124" type="curve" smooth="yes"/>
      <point x="-75" y="-124"/>
      <point x="-93" y="-143"/>
      <point x="-93" y="-173" type="curve" smooth="yes"/>
      <point x="-93" y="-223"/>
      <point x="-42" y="-260"/>
      <point x="27" y="-260" type="curve" smooth="yes"/>
      <point x="109" y="-260"/>
      <point x="173" y="-207"/>
      <point x="222" y="-99" type="curve" smooth="yes"/>
      <point x="256" y="-23"/>
      <point x="278" y="63"/>
      <point x="304" y="226" type="curve" smooth="yes"/>
      <point x="335" y="419" type="line"/>
      <point x="451" y="419" type="line"/>
      <point x="464" y="467" type="line"/>
      <point x="340" y="467" type="line"/>
      <point x="350" y="523" type="line" smooth="yes"/>
      <point x="374" y="663"/>
      <point x="414" y="732"/>
      <point x="471" y="732" type="curve" smooth="yes"/>
      <point x="492" y="732"/>
      <point x="507" y="724"/>
      <point x="539" y="698" type="curve" smooth="yes"/>
      <point x="568" y="674"/>
      <point x="584" y="665"/>
      <point x="600" y="665" type="curve" smooth="yes"/>
      <point x="624" y="665"/>
      <point x="644" y="685"/>
      <point x="644" y="710" type="curve" smooth="yes"/>
      <point x="644" y="750"/>
      <point x="587" y="780"/>
      <point x="511" y="780" type="curve" smooth="yes"/>
      <point x="380" y="780"/>
      <point x="285" y="685"/>
      <point x="255" y="525" type="curve" smooth="yes"/>
      <point x="244" y="467" type="line"/>
      <point x="144" y="467" type="line"/>
      <point x="130" y="419" type="line"/>
      <point x="235" y="419" type="line"/>
      <point x="185" y="82" type="line" smooth="yes"/>
      <point x="153" y="-129"/>
      <point x="120" y="-211"/>
    </contour>
  </outline>
</glyph>
<glyph name="Aringacute" format="1">
  <advance width="775"/>
  <unicode hex="01FA"/>
  <outline>
    <contour>
      <point x="530" y="171" type="line" smooth="yes"/>
      <point x="545" y="136"/>
      <point x="553" y="109"/>
      <point x="553" y="88" type="curve" smooth="yes"/>
      <point x="553" y="53"/>
      <point x="527" y="39"/>
      <point x="460" y="39" type="curve"/>
      <point x="460" y="0" type="line"/>
      <point x="786" y="0" type="line"/>
      <point x="786" y="39" type="line"/>
      <point x="728" y="39"/>
      <point x="694" y="66"/>
      <point x="661" y="142" type="curve" smooth="yes"/>
      <point x="407" y="720" type="line"/>
      <point x="364" y="720" type="line"/>
      <point x="104" y="119" type="line" smooth="yes"/>
      <point x="80" y="63"/>
      <point x="51" y="38"/>
      <point x="-5" y="38" type="curve"/>
      <point x="-5" y="0" type="line"/>
      <point x="238" y="0" type="line"/>
      <point x="238" y="38" type="line"/>
      <point x="184" y="38"/>
      <point x="159" y="52"/>
      <point x="159" y="89" type="curve" smooth="yes"/>
      <point x="159" y="110"/>
      <point x="164" y="130"/>
      <point x="181" y="173" type="curve" smooth="yes"/>
      <point x="223" y="279" type="line"/>
      <point x="484" y="279" type="line"/>
    </contour>
    <contour>
      <point x="359" y="594" type="line"/>
      <point x="463" y="329" type="line"/>
      <point x="246" y="329" type="line"/>
    </contour>
    <contour>
      <point x="300" y="878" type="curve" smooth="yes"/>
      <point x="300" y="871"/>
      <point x="301" y="864"/>
      <point x="302" y="857" type="curve"/>
      <point x="242" y="801" type="line"/>
      <point x="296" y="801" type="line"/>
      <point x="328" y="816" type="line"/>
      <point x="342" y="805"/>
      <point x="359" y="799"/>
      <point x="379" y="799" type="curve" smooth="yes"/>
      <point x="425" y="799"/>
      <point x="459" y="834"/>
      <point x="459" y="878" type="curve" smooth="yes"/>
      <point x="459" y="883"/>
      <point x="458" y="889"/>
      <point x="457" y="894" type="curve"/>
      <point x="484" y="909"/>
      <point x="500" y="926"/>
      <point x="500" y="944" type="curve" smooth="yes"/>
      <point x="500" y="960"/>
      <point x="488" y="970"/>
      <point x="471" y="970" type="curve" smooth="yes"/>
      <point x="455" y="970"/>
      <point x="441" y="964"/>
      <point x="424" y="947" type="curve"/>
      <point x="412" y="955"/>
      <point x="396" y="960"/>
      <point x="379" y="960" type="curve" smooth="yes"/>
      <point x="334" y="960"/>
      <point x="300" y="926"/>
    </contour>
    <contour>
      <point x="337" y="878" type="curve" smooth="yes"/>
      <point x="337" y="903"/>
      <point x="354" y="920"/>
      <point x="379" y="920" type="curve" smooth="yes"/>
      <point x="404" y="920"/>
      <point x="421" y="903"/>
      <point x="421" y="878" type="curve" smooth="yes"/>
      <point x="421" y="854"/>
      <point x="404" y="837"/>
      <point x="379" y="837" type="curve" smooth="yes"/>
      <point x="354" y="837"/>
      <point x="337" y="854"/>
    </contour>
  </outline>
</glyph>
<glyph name="dotlessj" format="1">
  <advance width="304"/>
  <unicode hex="0237"/>
  <outline>
    <contour>
      <point x="162" y="651" type="move" name="top"/>
    </contour>
    <contour>
      <point x="213" y="540" type="line"/>
      <point x="17" y="502" type="line"/>
      <point x="17" y="467" type="line"/>
      <point x="83" y="467"/>
      <point x="102" y="458"/>
      <point x="108" y="427" type="curve" smooth="yes"/>
      <point x="113" y="409"/>
      <point x="115" y="357"/>
      <point x="115" y="280" type="curve" smooth="yes"/>
      <point x="115" y="-68" type="line" smooth="yes"/>
      <point x="115" y="-179"/>
      <point x="93" y="-217"/>
      <point x="29" y="-217" type="curve" smooth="yes"/>
      <point x="-4" y="-217"/>
      <point x="-15" y="-207"/>
      <point x="-34" y="-167" type="curve" smooth="yes"/>
      <point x="-54" y="-127"/>
      <point x="-62" y="-120"/>
      <point x="-86" y="-120" type="curve" smooth="yes"/>
      <point x="-118" y="-120"/>
      <point x="-137" y="-137"/>
      <point x="-137" y="-167" type="curve" smooth="yes"/>
      <point x="-137" y="-222"/>
      <point x="-77" y="-260"/>
      <point x="8" y="-260" type="curve" smooth="yes"/>
      <point x="140" y="-260"/>
      <point x="213" y="-168"/>
      <point x="213" y="-2" type="curve" smooth="yes"/>
    </contour>
  </outline>
</glyph>
<glyph name="schwa" format="1">
  <advance width="574"/>
  <unicode hex="0259"/>
  <outline>
    <contour>
      <point x="83" y="409" type="line"/>
      <point x="133" y="464"/>
      <point x="180" y="488"/>
      <point x="235" y="488" type="curve" smooth="yes"/>
      <point x="342" y="488"/>
      <point x="412" y="397"/>
      <point x="412" y="258" type="curve" smooth="yes"/>
      <point x="412" y="240"/>
      <point x="411" y="224"/>
      <point x="408" y="213" type="curve"/>
      <point x="79" y="213" type="line" smooth="yes"/>
      <point x="52" y="213"/>
      <point x="48" y="211"/>
      <point x="48" y="193" type="curve" smooth="yes"/>
      <point x="48" y="63"/>
      <point x="123" y="-10"/>
      <point x="251" y="-10" type="curve" smooth="yes"/>
      <point x="412" y="-10"/>
      <point x="525" y="107"/>
      <point x="525" y="271" type="curve" smooth="yes"/>
      <point x="525" y="431"/>
      <point x="419" y="540"/>
      <point x="263" y="540" type="curve" smooth="yes"/>
      <point x="178" y="540"/>
      <point x="110" y="507"/>
      <point x="52" y="437" type="curve"/>
    </contour>
    <contour>
      <point x="401" y="167" type="line"/>
      <point x="384" y="82"/>
      <point x="338" y="38"/>
      <point x="267" y="38" type="curve" smooth="yes"/>
      <point x="200" y="38"/>
      <point x="157" y="78"/>
      <point x="157" y="139" type="curve" smooth="yes"/>
      <point x="157" y="163"/>
      <point x="163" y="167"/>
      <point x="217" y="167" type="curve"/>
    </contour>
  </outline>
</glyph>
<glyph name="circumflex" format="1">
  <advance width="368"/>
  <unicode hex="02C6"/>
  <outline>
    <contour>
      <point x="184" y="651" type="move" name="_top"/>
    </contour>
    <contour>
      <point x="139" y="780" type="line"/>
      <point x="20" y="651" type="line"/>
      <point x="65" y="651" type="line"/>
      <point x="184" y="719" type="line"/>
      <point x="303" y="651" type="line"/>
      <point x="348" y="651" type="line"/>
      <point x="229" y="780" type="line"/>
    </contour>
  </outline>
</glyph>
<glyph name="caron" format="1">
  <advance width="368"/>
  <unicode hex="02C7"/>
  <outline>
    <contour>
      <point x="184" y="651" type="move" name="_top"/>
    </contour>
    <contour>
      <point x="229" y="651" type="line"/>
      <point x="348" y="780" type="line"/>
      <point x="303" y="780" type="line"/>
      <point x="184" y="712" type="line"/>
      <point x="65" y="780" type="line"/>
      <point x="20" y="780" type="line"/>
      <point x="139" y="651" type="line"/>
    </contour>
  </outline>
</glyph>
<glyph name="dotaccent" format="1">
  <advance width="164"/>
  <unicode hex="02D9"/>
  <outline>
    <contour>
      <point x="82" y="651" type="move" name="_top"/>
    </contour>
    <contour>
      <point x="20" y="743" type="curve" smooth="yes"/>
      <point x="20" y="708"/>
      <point x="47" y="681"/>
      <point x="82" y="681" type="curve" smooth="yes"/>
      <point x="117" y="681"/>
      <point x="144" y="708"/>
      <point x="144" y="743" type="curve" smooth="yes"/>
      <point x="144" y="778"/>
      <point x="117" y="805"/>
      <point x="82" y="805" type="curve" smooth="yes"/>
      <point x="47" y="805"/>
      <point x="20" y="778"/>
    </contour>
  </outline>
</glyph>
<glyph name="ring" format="1">
  <advance width="214"/>
  <unicode hex="02DA"/>
  <outline>
    <contour>
      <point x="106" y="651" type="move" name="_top"/>
    </contour>
    <contour>
      <point x="20" y="742" type="curve" smooth="yes"/>
      <point x="20" y="693"/>
      <point x="57" y="656"/>
      <point x="106" y="656" type="curve" smooth="yes"/>
      <point x="157" y="656"/>
      <point x="194" y="693"/>
      <point x="194" y="742" type="curve" smooth="yes"/>
      <point x="194" y="793"/>
      <point x="157" y="830"/>
      <point x="106" y="830" type="curve" smooth="yes"/>
      <point x="57" y="830"/>
      <point x="20" y="793"/>
    </contour>
    <contour>
      <point x="59" y="742" type="curve" smooth="yes"/>
      <point x="59" y="768"/>
      <point x="79" y="787"/>
      <point x="106" y="787" type="curve" smooth="yes"/>
      <point x="132" y="787"/>
      <point x="151" y="768"/>
      <point x="151" y="742" type="curve" smooth="yes"/>
      <point x="151" y="715"/>
      <point x="132" y="695"/>
      <point x="106" y="695" type="curve" smooth="yes"/>
      <point x="79" y="695"/>
      <point x="59" y="715"/>
    </contour>
  </outline>
</glyph>
<glyph name="tilde" format="1">
  <advance width="381"/>
  <unicode hex="02DC"/>
  <outline>
    <contour>
      <point x="191" y="651" type="move" name="_top"/>
    </contour>
    <contour>
      <point x="54" y="660" type="line"/>
      <point x="63" y="690"/>
      <point x="74" y="700"/>
      <point x="99" y="700" type="curve" smooth="yes"/>
      <point x="153" y="700"/>
      <point x="208" y="652"/>
      <point x="261" y="652" type="curve" smooth="yes"/>
      <point x="311" y="652"/>
      <point x="354" y="703"/>
      <point x="361" y="770" type="curve"/>
      <point x="328" y="770" type="line"/>
      <point x="318" y="739"/>
      <point x="306" y="728"/>
      <point x="281" y="728" type="curve" smooth="yes"/>
      <point x="230" y="728"/>
      <point x="179" y="774"/>
      <point x="126" y="774" type="curve" smooth="yes"/>
      <point x="74" y="774"/>
      <point x="31" y="728"/>
      <point x="20" y="660" type="curve"/>
    </contour>
  </outline>
</glyph>
<glyph name="emdash" format="1">
  <advance width="1112"/>
  <unicode hex="2014"/>
  <outline>
    <contour>
      <point x="1035" y="248" type="line"/>
      <point x="1035" y="331" type="line"/>
      <point x="77" y="331" type="line"/>
      <point x="77" y="248" type="line"/>
    </contour>
  </outline>
</glyph>
<glyph name="quotesinglbase" format="1">
  <advance width="275"/>
  <unicode hex="201A"/>
  <outline>
    <contour>
      <point x="89" y="-165" type="line"/>
      <point x="180" y="-98"/>
      <point x="208" y="-56"/>
      <point x="208" y="12" type="curve" smooth="yes"/>
      <point x="208" y="73"/>
      <point x="183" y="106"/>
      <point x="137" y="106" type="curve" smooth="yes"/>
      <point x="96" y="106"/>
      <point x="69" y="81"/>
      <point x="69" y="45" type="curve" smooth="yes"/>
      <point x="69" y="13"/>
      <point x="90" y="-10"/>
      <point x="121" y="-10" type="curve" smooth="yes"/>
      <point x="132" y="-10"/>
      <point x="143" y="-7"/>
      <point x="151" y="-2" type="curve"/>
      <point x="151" y="-53"/>
      <point x="127" y="-92"/>
      <point x="66" y="-138" type="curve"/>
    </contour>
  </outline>
</glyph>
<glyph name="dagger" format="1">
  <advance width="552"/>
  <unicode hex="2020"/>
  <outline>
    <contour>
      <point x="92" y="429" type="curve" smooth="yes"/>
      <point x="138" y="429"/>
      <point x="166" y="461"/>
      <point x="257" y="469" type="curve"/>
      <point x="256" y="370"/>
      <point x="239" y="317"/>
      <point x="202" y="261" type="curve"/>
      <point x="231" y="153"/>
      <point x="257" y="-93"/>
      <point x="257" y="-260" type="curve"/>
      <point x="297" y="-260" type="line"/>
      <point x="297" y="-93"/>
      <point x="323" y="153"/>
      <point x="352" y="261" type="curve"/>
      <point x="315" y="317"/>
      <point x="297" y="370"/>
      <point x="297" y="469" type="curve"/>
      <point x="386" y="461"/>
      <point x="414" y="429"/>
      <point x="460" y="429" type="curve" smooth="yes"/>
      <point x="495" y="429"/>
      <point x="522" y="456"/>
      <point x="522" y="491" type="curve" smooth="yes"/>
      <point x="522" y="526"/>
      <point x="495" y="553"/>
      <point x="460" y="553" type="curve" smooth="yes"/>
      <point x="414" y="553"/>
      <point x="387" y="521"/>
      <point x="297" y="512" type="curve"/>
      <point x="302" y="633"/>
      <point x="339" y="663"/>
      <point x="339" y="718" type="curve" smooth="yes"/>
      <point x="339" y="753"/>
      <point x="312" y="780"/>
      <point x="277" y="780" type="curve" smooth="yes"/>
      <point x="242" y="780"/>
      <point x="215" y="753"/>
      <point x="215" y="718" type="curve" smooth="yes"/>
      <point x="215" y="662"/>
      <point x="253" y="632"/>
      <point x="256" y="512" type="curve"/>
      <point x="165" y="520"/>
      <point x="137" y="553"/>
      <point x="92" y="553" type="curve" smooth="yes"/>
      <point x="57" y="553"/>
      <point x="30" y="526"/>
      <point x="30" y="491" type="curve" smooth="yes"/>
      <point x="30" y="456"/>
      <point x="57" y="429"/>
    </contour>
  </outline>
</glyph>
<glyph name="daggerdbl" format="1">
  <advance width="594"/>
  <unicode hex="2021"/>
  <outline>
    <contour>
      <point x="373" y="261" type="curve"/>
      <point x="336" y="317"/>
      <point x="318" y="370"/>
      <point x="318" y="469" type="curve"/>
      <point x="407" y="461"/>
      <point x="435" y="429"/>
      <point x="481" y="429" type="curve" smooth="yes"/>
      <point x="516" y="429"/>
      <point x="543" y="456"/>
      <point x="543" y="491" type="curve" smooth="yes"/>
      <point x="543" y="526"/>
      <point x="516" y="553"/>
      <point x="481" y="553" type="curve" smooth="yes"/>
      <point x="435" y="553"/>
      <point x="408" y="521"/>
      <point x="318" y="512" type="curve"/>
      <point x="323" y="633"/>
      <point x="360" y="663"/>
      <point x="360" y="718" type="curve" smooth="yes"/>
      <point x="360" y="753"/>
      <point x="333" y="780"/>
      <point x="298" y="780" type="curve" smooth="yes"/>
      <point x="263" y="780"/>
      <point x="236" y="753"/>
      <point x="236" y="718" type="curve" smooth="yes"/>
      <point x="236" y="662"/>
      <point x="274" y="632"/>
      <point x="277" y="512" type="curve"/>
      <point x="186" y="520"/>
      <point x="158" y="553"/>
      <point x="113" y="553" type="curve" smooth="yes"/>
      <point x="78" y="553"/>
      <point x="51" y="526"/>
      <point x="51" y="491" type="curve" smooth="yes"/>
      <point x="51" y="456"/>
      <point x="78" y="429"/>
      <point x="113" y="429" type="curve" smooth="yes"/>
      <point x="159" y="429"/>
      <point x="187" y="461"/>
      <point x="278" y="469" type="curve"/>
      <point x="277" y="370"/>
      <point x="260" y="317"/>
      <point x="223" y="261" type="curve"/>
      <point x="260" y="203"/>
      <point x="277" y="150"/>
      <point x="278" y="51" type="curve"/>
      <point x="187" y="59"/>
      <point x="159" y="91"/>
      <point x="113" y="91" type="curve" smooth="yes"/>
      <point x="78" y="91"/>
      <point x="51" y="64"/>
      <point x="51" y="29" type="curve" smooth="yes"/>
      <point x="51" y="-6"/>
      <point x="78" y="-33"/>
      <point x="113" y="-33" type="curve" smooth="yes"/>
      <point x="158" y="-33"/>
      <point x="186" y="0"/>
      <point x="277" y="8" type="curve"/>
      <point x="274" y="-112"/>
      <point x="236" y="-142"/>
      <point x="236" y="-198" type="curve" smooth="yes"/>
      <point x="236" y="-233"/>
      <point x="263" y="-260"/>
      <point x="298" y="-260" type="curve" smooth="yes"/>
      <point x="333" y="-260"/>
      <point x="360" y="-233"/>
      <point x="360" y="-198" type="curve" smooth="yes"/>
      <point x="360" y="-143"/>
      <point x="323" y="-113"/>
      <point x="318" y="8" type="curve"/>
      <point x="408" y="-1"/>
      <point x="435" y="-33"/>
      <point x="481" y="-33" type="curve" smooth="yes"/>
      <point x="516" y="-33"/>
      <point x="543" y="-6"/>
      <point x="543" y="29" type="curve" smooth="yes"/>
      <point x="543" y="64"/>
      <point x="516" y="91"/>
      <point x="481" y="91" type="curve" smooth="yes"/>
      <point x="435" y="91"/>
      <point x="407" y="59"/>
      <point x="318" y="51" type="curve"/>
      <point x="318" y="150"/>
      <point x="336" y="205"/>
    </contour>
  </outline>
</glyph>
<glyph name="guilsinglleft" format="1">
  <advance width="318"/>
  <unicode hex="2039"/>
  <outline>
    <contour>
      <point x="219" y="104" type="line"/>
      <point x="238" y="124" type="line"/>
      <point x="140" y="262" type="line"/>
      <point x="239" y="400" type="line"/>
      <point x="219" y="421" type="line"/>
      <point x="49" y="262" type="line"/>
    </contour>
  </outline>
</glyph>
<glyph name="zerosuperior" format="1">
  <advance width="310"/>
  <unicode hex="2070"/>
  <outline>
    <contour>
      <point x="155" y="780" type="curve" smooth="yes"/>
      <point x="90" y="780"/>
      <point x="37" y="710"/>
      <point x="37" y="620" type="curve" smooth="yes"/>
      <point x="37" y="533"/>
      <point x="90" y="464"/>
      <point x="155" y="464" type="curve" smooth="yes"/>
      <point x="220" y="464"/>
      <point x="273" y="533"/>
      <point x="273" y="620" type="curve" smooth="yes"/>
      <point x="273" y="710"/>
      <point x="220" y="780"/>
    </contour>
    <contour>
      <point x="155" y="489" type="curve" smooth="yes"/>
      <point x="116" y="489"/>
      <point x="94" y="518"/>
      <point x="94" y="618" type="curve" smooth="yes"/>
      <point x="94" y="723"/>
      <point x="116" y="755"/>
      <point x="155" y="755" type="curve" smooth="yes"/>
      <point x="194" y="755"/>
      <point x="216" y="723"/>
      <point x="216" y="618" type="curve" smooth="yes"/>
      <point x="216" y="518"/>
      <point x="193" y="489"/>
    </contour>
  </outline>
</glyph>
<glyph name="sixsuperior" format="1">
  <advance width="292"/>
  <unicode hex="2076"/>
  <outline>
    <contour>
      <point x="257" y="572" type="curve" smooth="yes"/>
      <point x="257" y="628"/>
      <point x="214" y="671"/>
      <point x="157" y="671" type="curve" smooth="yes"/>
      <point x="130" y="671"/>
      <point x="109" y="660"/>
      <point x="92" y="635" type="curve"/>
      <point x="88" y="636" type="line"/>
      <point x="88" y="705"/>
      <point x="118" y="757"/>
      <point x="152" y="757" type="curve" smooth="yes"/>
      <point x="196" y="757"/>
      <point x="182" y="718"/>
      <point x="216" y="718" type="curve" smooth="yes"/>
      <point x="229" y="718"/>
      <point x="238" y="726"/>
      <point x="238" y="739" type="curve" smooth="yes"/>
      <point x="238" y="762"/>
      <point x="205" y="780"/>
      <point x="163" y="780" type="curve" smooth="yes"/>
      <point x="94" y="780"/>
      <point x="37" y="700"/>
      <point x="37" y="603" type="curve" smooth="yes"/>
      <point x="37" y="521"/>
      <point x="81" y="464"/>
      <point x="146" y="464" type="curve" smooth="yes"/>
      <point x="207" y="464"/>
      <point x="257" y="512"/>
    </contour>
    <contour>
      <point x="92" y="601" type="line"/>
      <point x="109" y="633"/>
      <point x="127" y="647"/>
      <point x="151" y="647" type="curve" smooth="yes"/>
      <point x="184" y="647"/>
      <point x="202" y="620"/>
      <point x="202" y="570" type="curve" smooth="yes"/>
      <point x="202" y="513"/>
      <point x="184" y="487"/>
      <point x="147" y="487" type="curve" smooth="yes"/>
      <point x="111" y="487"/>
      <point x="92" y="519"/>
      <point x="92" y="581" type="curve" smooth="yes"/>
    </contour>
  </outline>
</glyph>
<glyph name="sevensuperior" format="1">
  <advance width="238"/>
  <unicode hex="2077"/>
  <outline>
    <contour>
      <point x="131" y="626" type="line" smooth="yes"/>
      <point x="67" y="512"/>
      <point x="56" y="494"/>
      <point x="56" y="480" type="curve" smooth="yes"/>
      <point x="56" y="467"/>
      <point x="65" y="458"/>
      <point x="79" y="458" type="curve" smooth="yes"/>
      <point x="95" y="458"/>
      <point x="108" y="474"/>
      <point x="124" y="516" type="curve" smooth="yes"/>
      <point x="158" y="605"/>
      <point x="167" y="634"/>
      <point x="226" y="762" type="curve"/>
      <point x="226" y="770" type="line"/>
      <point x="104" y="770" type="line" smooth="yes"/>
      <point x="78" y="770"/>
      <point x="73" y="772"/>
      <point x="73" y="782" type="curve" smooth="yes"/>
      <point x="73" y="785"/>
      <point x="74" y="792"/>
      <point x="75" y="794" type="curve"/>
      <point x="54" y="794" type="line"/>
      <point x="26" y="682" type="line"/>
      <point x="46" y="682" type="line"/>
      <point x="52" y="698" type="line" smooth="yes"/>
      <point x="63" y="727"/>
      <point x="69" y="730"/>
      <point x="111" y="730" type="curve" smooth="yes"/>
      <point x="185" y="730" type="line"/>
    </contour>
  </outline>
</glyph>
<glyph name="eightsuperior" format="1">
  <advance width="278"/>
  <unicode hex="2078"/>
  <outline>
    <contour>
      <point x="150" y="600" type="line" smooth="yes"/>
      <point x="190" y="577"/>
      <point x="200" y="561"/>
      <point x="200" y="536" type="curve" smooth="yes"/>
      <point x="200" y="507"/>
      <point x="172" y="487"/>
      <point x="142" y="487" type="curve" smooth="yes"/>
      <point x="104" y="487"/>
      <point x="80" y="506"/>
      <point x="80" y="542" type="curve" smooth="yes"/>
      <point x="80" y="574"/>
      <point x="98" y="599"/>
      <point x="126" y="614" type="curve"/>
    </contour>
    <contour>
      <point x="177" y="641" type="curve"/>
      <point x="206" y="658"/>
      <point x="229" y="676"/>
      <point x="229" y="710" type="curve" smooth="yes"/>
      <point x="229" y="732"/>
      <point x="217" y="751"/>
      <point x="199" y="763" type="curve" smooth="yes"/>
      <point x="182" y="775"/>
      <point x="159" y="780"/>
      <point x="138" y="780" type="curve" smooth="yes"/>
      <point x="115" y="780"/>
      <point x="90" y="774"/>
      <point x="73" y="758" type="curve" smooth="yes"/>
      <point x="57" y="743"/>
      <point x="47" y="722"/>
      <point x="47" y="701" type="curve" smooth="yes"/>
      <point x="47" y="662"/>
      <point x="73" y="639"/>
      <point x="104" y="622" type="curve"/>
      <point x="69" y="606"/>
      <point x="37" y="581"/>
      <point x="37" y="539" type="curve" smooth="yes"/>
      <point x="37" y="488"/>
      <point x="93" y="464"/>
      <point x="138" y="464" type="curve" smooth="yes"/>
      <point x="192" y="464"/>
      <point x="241" y="498"/>
      <point x="241" y="553" type="curve" smooth="yes"/>
      <point x="241" y="595"/>
      <point x="212" y="623"/>
    </contour>
    <contour>
      <point x="136" y="660" type="line" smooth="yes"/>
      <point x="100" y="679"/>
      <point x="87" y="693"/>
      <point x="87" y="718" type="curve" smooth="yes"/>
      <point x="87" y="738"/>
      <point x="105" y="757"/>
      <point x="137" y="757" type="curve" smooth="yes"/>
      <point x="171" y="757"/>
      <point x="191" y="733"/>
      <point x="191" y="704" type="curve" smooth="yes"/>
      <point x="191" y="684"/>
      <point x="173" y="661"/>
      <point x="155" y="650" type="curve"/>
    </contour>
  </outline>
</glyph>
<glyph name="twoinferior" format="1">
  <advance width="285"/>
  <unicode hex="2082"/>
  <outline>
    <contour>
      <point x="97" y="43" type="line"/>
      <point x="175" y="101"/>
      <point x="238" y="160"/>
      <point x="238" y="226" type="curve" smooth="yes"/>
      <point x="238" y="276"/>
      <point x="196" y="312"/>
      <point x="137" y="312" type="curve" smooth="yes"/>
      <point x="80" y="312"/>
      <point x="38" y="277"/>
      <point x="38" y="229" type="curve" smooth="yes"/>
      <point x="38" y="194"/>
      <point x="60" y="169"/>
      <point x="89" y="169" type="curve" smooth="yes"/>
      <point x="109" y="169"/>
      <point x="123" y="180"/>
      <point x="125" y="195" type="curve"/>
      <point x="99" y="195"/>
      <point x="81" y="212"/>
      <point x="81" y="238" type="curve" smooth="yes"/>
      <point x="81" y="267"/>
      <point x="102" y="289"/>
      <point x="130" y="289" type="curve" smooth="yes"/>
      <point x="164" y="289"/>
      <point x="185" y="265"/>
      <point x="185" y="226" type="curve" smooth="yes"/>
      <point x="185" y="170"/>
      <point x="156" y="122"/>
      <point x="34" y="13" type="curve"/>
      <point x="34" y="0" type="line"/>
      <point x="235" y="0" type="line"/>
      <point x="250" y="85" type="line"/>
      <point x="230" y="85" type="line"/>
      <point x="219" y="48"/>
      <point x="208" y="39"/>
      <point x="182" y="39" type="curve" smooth="yes"/>
      <point x="97" y="39" type="line"/>
    </contour>
  </outline>
</glyph>
<glyph name="fiveinferior" format="1">
  <advance width="262"/>
  <unicode hex="2085"/>
  <outline>
    <contour>
      <point x="110" y="258" type="line"/>
      <point x="146" y="258" type="line" smooth="yes"/>
      <point x="182" y="258"/>
      <point x="207" y="276"/>
      <point x="213" y="306" type="curve"/>
      <point x="209" y="306" type="line"/>
      <point x="202" y="303"/>
      <point x="171" y="299"/>
      <point x="148" y="299" type="curve" smooth="yes"/>
      <point x="128" y="299"/>
      <point x="110" y="302"/>
      <point x="101" y="306" type="curve"/>
      <point x="59" y="148" type="line" smooth="yes"/>
      <point x="58" y="145"/>
      <point x="57" y="139"/>
      <point x="57" y="137" type="curve" smooth="yes"/>
      <point x="57" y="132"/>
      <point x="60" y="130"/>
      <point x="66" y="130" type="curve" smooth="yes"/>
      <point x="73" y="130"/>
      <point x="77" y="133"/>
      <point x="81" y="141" type="curve" smooth="yes"/>
      <point x="95" y="166"/>
      <point x="108" y="176"/>
      <point x="129" y="176" type="curve" smooth="yes"/>
      <point x="158" y="176"/>
      <point x="171" y="156"/>
      <point x="171" y="113" type="curve" smooth="yes"/>
      <point x="171" y="52"/>
      <point x="144" y="13"/>
      <point x="100" y="13" type="curve" smooth="yes"/>
      <point x="82" y="13"/>
      <point x="73" y="19"/>
      <point x="66" y="36" type="curve" smooth="yes"/>
      <point x="54" y="64"/>
      <point x="49" y="68"/>
      <point x="38" y="68" type="curve" smooth="yes"/>
      <point x="28" y="68"/>
      <point x="21" y="61"/>
      <point x="21" y="45" type="curve" smooth="yes"/>
      <point x="21" y="12"/>
      <point x="53" y="-10"/>
      <point x="101" y="-10" type="curve" smooth="yes"/>
      <point x="172" y="-10"/>
      <point x="226" y="39"/>
      <point x="226" y="103" type="curve" smooth="yes"/>
      <point x="226" y="162"/>
      <point x="189" y="198"/>
      <point x="135" y="198" type="curve" smooth="yes"/>
      <point x="118" y="198"/>
      <point x="104" y="194"/>
      <point x="95" y="187" type="curve"/>
      <point x="92" y="189" type="line"/>
    </contour>
  </outline>
</glyph>
<glyph name="sixinferior" format="1">
  <advance width="292"/>
  <unicode hex="2086"/>
  <outline>
    <contour>
      <point x="257" y="98" type="curve" smooth="yes"/>
      <point x="257" y="154"/>
      <point x="214" y="197"/>
      <point x="157" y="197" type="curve" smooth="yes"/>
      <point x="130" y="197"/>
      <point x="109" y="186"/>
      <point x="92" y="161" type="curve"/>
      <point x="88" y="162" type="line"/>
      <point x="88" y="231"/>
      <point x="118" y="283"/>
      <point x="152" y="283" type="curve" smooth="yes"/>
      <point x="196" y="283"/>
      <point x="182" y="244"/>
      <point x="216" y="244" type="curve" smooth="yes"/>
      <point x="229" y="244"/>
      <point x="238" y="252"/>
      <point x="238" y="265" type="curve" smooth="yes"/>
      <point x="238" y="288"/>
      <point x="205" y="306"/>
      <point x="163" y="306" type="curve" smooth="yes"/>
      <point x="94" y="306"/>
      <point x="37" y="226"/>
      <point x="37" y="129" type="curve" smooth="yes"/>
      <point x="37" y="47"/>
      <point x="81" y="-10"/>
      <point x="146" y="-10" type="curve" smooth="yes"/>
      <point x="207" y="-10"/>
      <point x="257" y="38"/>
    </contour>
    <contour>
      <point x="92" y="127" type="line"/>
      <point x="109" y="159"/>
      <point x="127" y="173"/>
      <point x="151" y="173" type="curve" smooth="yes"/>
      <point x="184" y="173"/>
      <point x="202" y="146"/>
      <point x="202" y="96" type="curve" smooth="yes"/>
      <point x="202" y="39"/>
      <point x="184" y="13"/>
      <point x="147" y="13" type="curve" smooth="yes"/>
      <point x="111" y="13"/>
      <point x="92" y="45"/>
      <point x="92" y="107" type="curve" smooth="yes"/>
    </contour>
  </outline>
</glyph>
<glyph name="nineinferior" format="1">
  <advance width="292"/>
  <unicode hex="2089"/>
  <outline>
    <contour>
      <point x="35" y="198" type="curve" smooth="yes"/>
      <point x="35" y="142"/>
      <point x="78" y="99"/>
      <point x="135" y="99" type="curve" smooth="yes"/>
      <point x="162" y="99"/>
      <point x="183" y="110"/>
      <point x="200" y="135" type="curve"/>
      <point x="204" y="134" type="line"/>
      <point x="204" y="65"/>
      <point x="174" y="13"/>
      <point x="140" y="13" type="curve" smooth="yes"/>
      <point x="96" y="13"/>
      <point x="110" y="52"/>
      <point x="76" y="52" type="curve" smooth="yes"/>
      <point x="63" y="52"/>
      <point x="54" y="44"/>
      <point x="54" y="31" type="curve" smooth="yes"/>
      <point x="54" y="8"/>
      <point x="87" y="-10"/>
      <point x="129" y="-10" type="curve" smooth="yes"/>
      <point x="198" y="-10"/>
      <point x="255" y="70"/>
      <point x="255" y="167" type="curve" smooth="yes"/>
      <point x="255" y="249"/>
      <point x="211" y="306"/>
      <point x="146" y="306" type="curve" smooth="yes"/>
      <point x="85" y="306"/>
      <point x="35" y="258"/>
    </contour>
    <contour>
      <point x="200" y="169" type="line"/>
      <point x="183" y="137"/>
      <point x="165" y="123"/>
      <point x="141" y="123" type="curve" smooth="yes"/>
      <point x="108" y="123"/>
      <point x="90" y="150"/>
      <point x="90" y="200" type="curve" smooth="yes"/>
      <point x="90" y="257"/>
      <point x="108" y="283"/>
      <point x="145" y="283" type="curve" smooth="yes"/>
      <point x="181" y="283"/>
      <point x="200" y="251"/>
      <point x="200" y="189" type="curve" smooth="yes"/>
    </contour>
  </outline>
</glyph>
<glyph name="Euro" format="1">
  <advance width="717"/>
  <unicode hex="20AC"/>
  <outline>
    <contour>
      <point x="488" y="358" type="line"/>
      <point x="253" y="358" type="line"/>
      <point x="252" y="367"/>
      <point x="252" y="377"/>
      <point x="252" y="387" type="curve" smooth="yes"/>
      <point x="252" y="401"/>
      <point x="253" y="416"/>
      <point x="254" y="430" type="curve"/>
      <point x="488" y="430" type="line"/>
      <point x="488" y="488" type="line"/>
      <point x="257" y="488" type="line"/>
      <point x="276" y="650"/>
      <point x="340" y="732"/>
      <point x="438" y="732" type="curve" smooth="yes"/>
      <point x="513" y="732"/>
      <point x="564" y="669"/>
      <point x="586" y="554" type="curve"/>
      <point x="629" y="554" type="line"/>
      <point x="629" y="770" type="line"/>
      <point x="601" y="770" type="line"/>
      <point x="584" y="719" type="line"/>
      <point x="528" y="769"/>
      <point x="495" y="780"/>
      <point x="434" y="780" type="curve" smooth="yes"/>
      <point x="281" y="780"/>
      <point x="166" y="675"/>
      <point x="132" y="488" type="curve"/>
      <point x="42" y="488" type="line"/>
      <point x="42" y="430" type="line"/>
      <point x="126" y="430" type="line"/>
      <point x="124" y="416"/>
      <point x="123" y="402"/>
      <point x="123" y="388" type="curve" smooth="yes"/>
      <point x="123" y="378"/>
      <point x="123" y="368"/>
      <point x="124" y="358" type="curve"/>
      <point x="43" y="358" type="line"/>
      <point x="43" y="300" type="line"/>
      <point x="129" y="300" type="line"/>
      <point x="158" y="110"/>
      <point x="272" y="-10"/>
      <point x="423" y="-10" type="curve" smooth="yes"/>
      <point x="494" y="-10"/>
      <point x="553" y="16"/>
      <point x="598" y="69" type="curve"/>
      <point x="610" y="0" type="line"/>
      <point x="644" y="0" type="line"/>
      <point x="644" y="252" type="line"/>
      <point x="601" y="252" type="line"/>
      <point x="590" y="124"/>
      <point x="522" y="38"/>
      <point x="431" y="38" type="curve" smooth="yes"/>
      <point x="327" y="38"/>
      <point x="255" y="145"/>
      <point x="255" y="300" type="curve"/>
      <point x="488" y="300" type="line"/>
    </contour>
  </outline>
</glyph>
<glyph name="trademark" format="1">
  <advance width="886"/>
  <unicode hex="2122"/>
  <outline>
    <contour>
      <point x="375" y="770" type="line"/>
      <point x="73" y="770" type="line"/>
      <point x="73" y="694" type="line"/>
      <point x="93" y="694" type="line"/>
      <point x="95" y="737"/>
      <point x="108" y="748"/>
      <point x="158" y="748" type="curve" smooth="yes"/>
      <point x="188" y="748"/>
      <point x="197" y="741"/>
      <point x="197" y="731" type="curve" smooth="yes"/>
      <point x="197" y="531" type="line" smooth="yes"/>
      <point x="197" y="493"/>
      <point x="186" y="482"/>
      <point x="145" y="482" type="curve"/>
      <point x="145" y="462" type="line"/>
      <point x="306" y="462" type="line"/>
      <point x="306" y="482" type="line"/>
      <point x="265" y="482"/>
      <point x="254" y="492"/>
      <point x="254" y="531" type="curve" smooth="yes"/>
      <point x="254" y="731" type="line" smooth="yes"/>
      <point x="254" y="741"/>
      <point x="263" y="748"/>
      <point x="292" y="748" type="curve" smooth="yes"/>
      <point x="340" y="748"/>
      <point x="349" y="740"/>
      <point x="354" y="694" type="curve"/>
      <point x="375" y="694" type="line"/>
    </contour>
    <contour>
      <point x="606" y="544" type="line"/>
      <point x="705" y="770" type="line"/>
      <point x="805" y="770" type="line"/>
      <point x="805" y="750" type="line"/>
      <point x="773" y="750"/>
      <point x="765" y="738"/>
      <point x="765" y="689" type="curve" smooth="yes"/>
      <point x="765" y="543" type="line" smooth="yes"/>
      <point x="765" y="491"/>
      <point x="771" y="482"/>
      <point x="809" y="482" type="curve"/>
      <point x="809" y="462" type="line"/>
      <point x="674" y="462" type="line"/>
      <point x="674" y="482" type="line"/>
      <point x="712" y="482"/>
      <point x="718" y="492"/>
      <point x="718" y="540" type="curve" smooth="yes"/>
      <point x="718" y="720" type="line"/>
      <point x="714" y="720" type="line"/>
      <point x="597" y="458" type="line"/>
      <point x="589" y="458" type="line"/>
      <point x="476" y="720" type="line"/>
      <point x="472" y="720" type="line"/>
      <point x="472" y="543" type="line" smooth="yes"/>
      <point x="472" y="490"/>
      <point x="478" y="482"/>
      <point x="516" y="482" type="curve"/>
      <point x="516" y="462" type="line"/>
      <point x="399" y="462" type="line"/>
      <point x="399" y="482" type="line"/>
      <point x="437" y="482"/>
      <point x="443" y="490"/>
      <point x="443" y="540" type="curve" smooth="yes"/>
      <point x="443" y="692" type="line" smooth="yes"/>
      <point x="443" y="738"/>
      <point x="435" y="750"/>
      <point x="403" y="750" type="curve"/>
      <point x="403" y="770" type="line"/>
      <point x="511" y="770" type="line"/>
      <point x="602" y="544" type="line"/>
    </contour>
  </outline>
</glyph>
<glyph name="twothirds" format="1">
  <advance width="676"/>
  <unicode hex="2154"/>
  <outline>
    <contour>
      <point x="642" y="770" type="line"/>
      <point x="594" y="770" type="line"/>
      <point x="41" y="0" type="line"/>
      <point x="98" y="0" type="line"/>
    </contour>
    <component base="threeinferior" xOffset="347"/>
    <component base="twosuperior" xOffset="49"/>
  </outline>
</glyph>
<glyph name="threeeighths" format="1">
  <advance width="674"/>
  <unicode hex="215C"/>
  <outline>
    <contour>
      <point x="640" y="770" type="line"/>
      <point x="592" y="770" type="line"/>
      <point x="39" y="0" type="line"/>
      <point x="96" y="0" type="line"/>
    </contour>
    <component base="eightinferior" xOffset="344"/>
    <component base="threesuperior" xOffset="46"/>
  </outline>
</glyph>
<glyph name="seveneighths" format="1">
  <advance width="674"/>
  <unicode hex="215E"/>
  <outline>
    <contour>
      <point x="633" y="770" type="line"/>
      <point x="585" y="770" type="line"/>
      <point x="32" y="0" type="line"/>
      <point x="89" y="0" type="line"/>
    </contour>
    <component base="eightinferior" xOffset="337"/>
    <component base="sevensuperior" xOffset="88"/>
  </outline>
</glyph>
<glyph name="f_i" format="1">
  <advance width="651"/>
  <unicode hex="FB01"/>
  <outline>
    <contour>
      <point x="547" y="540" type="line"/>
      <point x="386" y="514" type="line"/>
      <point x="226" y="514" type="line"/>
      <point x="226" y="592" type="line" smooth="yes"/>
      <point x="226" y="746"/>
      <point x="265" y="782"/>
      <point x="348" y="782" type="curve" smooth="yes"/>
      <point x="382" y="782"/>
      <point x="395" y="778"/>
      <point x="436" y="750" type="curve" smooth="yes"/>
      <point x="467" y="729"/>
      <point x="485" y="720"/>
      <point x="501" y="720" type="curve" smooth="yes"/>
      <point x="526" y="720"/>
      <point x="545" y="740"/>
      <point x="545" y="767" type="curve" smooth="yes"/>
      <point x="545" y="804"/>
      <point x="479" y="830"/>
      <point x="385" y="830" type="curve" smooth="yes"/>
      <point x="225" y="830"/>
      <point x="132" y="739"/>
      <point x="132" y="586" type="curve" smooth="yes"/>
      <point x="132" y="514" type="line"/>
      <point x="19" y="514" type="line"/>
      <point x="19" y="467" type="line"/>
      <point x="132" y="467" type="line"/>
      <point x="132" y="153" type="line" smooth="yes"/>
      <point x="132" y="52"/>
      <point x="123" y="35"/>
      <point x="56" y="35" type="curve"/>
      <point x="56" y="0" type="line"/>
      <point x="310" y="0" type="line"/>
      <point x="310" y="35" type="line"/>
      <point x="242" y="35"/>
      <point x="226" y="62"/>
      <point x="226" y="161" type="curve" smooth="yes"/>
      <point x="226" y="467" type="line"/>
      <point x="351" y="467" type="line" smooth="yes"/>
      <point x="418" y="467"/>
      <point x="435" y="458"/>
      <point x="442" y="426" type="curve" smooth="yes"/>
      <point x="446" y="408"/>
      <point x="449" y="357"/>
      <point x="449" y="280" type="curve" smooth="yes"/>
      <point x="449" y="154" type="line" smooth="yes"/>
      <point x="449" y="60"/>
      <point x="437" y="37"/>
      <point x="363" y="37" type="curve"/>
      <point x="363" y="0" type="line"/>
      <point x="620" y="0" type="line"/>
      <point x="620" y="37" type="line"/>
      <point x="559" y="37"/>
      <point x="547" y="58"/>
      <point x="547" y="162" type="curve" smooth="yes"/>
    </contour>
  </outline>
</glyph>
<glyph name=".notdef" format="1">
  <advance width="756"/>
  <outline>
    <contour>
      <point x="130" y="-260" type="line"/>
      <point x="626" y="-260" type="line"/>
      <point x="626" y="970" type="line"/>
      <point x="130" y="970" type="line"/>
    </contour>
    <contour>
      <point x="240" y="911" type="line"/>
      <point x="515" y="911" type="line"/>
      <point x="515" y="-199" type="line"/>
      <point x="240" y="-199" type="line"/>
    </contour>
  </outline>
</glyph>
<glyph name="breve.cap" format="1">
  <advance width="316"/>
  <outline>
    <contour>
      <point x="158" y="830" type="move" name="_topcap"/>
    </contour>
    <contour>
      <point x="259" y="960" type="line"/>
      <point x="248" y="932"/>
      <point x="207" y="914"/>
      <point x="157" y="914" type="curve" smooth="yes"/>
      <point x="107" y="914"/>
      <point x="67" y="932"/>
      <point x="56" y="960" type="curve"/>
      <point x="20" y="960" type="line"/>
      <point x="23" y="894"/>
      <point x="81" y="845"/>
      <point x="158" y="845" type="curve" smooth="yes"/>
      <point x="233" y="845"/>
      <point x="291" y="893"/>
      <point x="296" y="960" type="curve"/>
    </contour>
  </outline>
</glyph>
<glyph name="c_t" format="1">
  <advance width="929"/>
  <outline>
    <contour>
      <point x="763" y="514" type="line"/>
      <point x="763" y="609" type="line" smooth="yes"/>
      <point x="763" y="739"/>
      <point x="702" y="804"/>
      <point x="580" y="804" type="curve" smooth="yes"/>
      <point x="453" y="804"/>
      <point x="380" y="735"/>
      <point x="380" y="616" type="curve" smooth="yes"/>
      <point x="380" y="585"/>
      <point x="385" y="559"/>
      <point x="396" y="534" type="curve"/>
      <point x="376" y="538"/>
      <point x="353" y="540"/>
      <point x="330" y="540" type="curve" smooth="yes"/>
      <point x="159" y="540"/>
      <point x="49" y="431"/>
      <point x="49" y="260" type="curve" smooth="yes"/>
      <point x="49" y="99"/>
      <point x="147" y="-10"/>
      <point x="293" y="-10" type="curve" smooth="yes"/>
      <point x="376" y="-10"/>
      <point x="457" y="25"/>
      <point x="506" y="83" type="curve"/>
      <point x="476" y="112" type="line"/>
      <point x="426" y="64"/>
      <point x="377" y="42"/>
      <point x="323" y="42" type="curve" smooth="yes"/>
      <point x="219" y="42"/>
      <point x="163" y="123"/>
      <point x="163" y="275" type="curve" smooth="yes"/>
      <point x="163" y="419"/>
      <point x="212" y="493"/>
      <point x="308" y="493" type="curve" smooth="yes"/>
      <point x="344" y="493"/>
      <point x="366" y="482"/>
      <point x="393" y="451" type="curve"/>
      <point x="416" y="419"/>
      <point x="428" y="410"/>
      <point x="452" y="410" type="curve" smooth="yes"/>
      <point x="484" y="410"/>
      <point x="503" y="426"/>
      <point x="503" y="452" type="curve" smooth="yes"/>
      <point x="503" y="466"/>
      <point x="497" y="480"/>
      <point x="486" y="492" type="curve"/>
      <point x="449" y="528"/>
      <point x="432" y="566"/>
      <point x="432" y="613" type="curve" smooth="yes"/>
      <point x="432" y="699"/>
      <point x="489" y="754"/>
      <point x="577" y="754" type="curve" smooth="yes"/>
      <point x="659" y="754"/>
      <point x="711" y="705"/>
      <point x="711" y="627" type="curve" smooth="yes"/>
      <point x="711" y="553"/>
      <point x="664" y="504"/>
      <point x="591" y="504" type="curve"/>
      <point x="591" y="467" type="line"/>
      <point x="651" y="467" type="line"/>
      <point x="651" y="112" type="line" smooth="yes"/>
      <point x="651" y="33"/>
      <point x="699" y="-10"/>
      <point x="785" y="-10" type="curve" smooth="yes"/>
      <point x="853" y="-10"/>
      <point x="901" y="17"/>
      <point x="920" y="66" type="curve"/>
      <point x="895" y="85" type="line"/>
      <point x="873" y="52"/>
      <point x="851" y="39"/>
      <point x="817" y="39" type="curve" smooth="yes"/>
      <point x="765" y="39"/>
      <point x="749" y="69"/>
      <point x="749" y="163" type="curve" smooth="yes"/>
      <point x="749" y="467" type="line"/>
      <point x="883" y="467" type="line"/>
      <point x="883" y="514" type="line"/>
    </contour>
  </outline>
</glyph>
<glyph name="circumflex.cap" format="1">
  <advance width="368"/>
  <outline>
    <contour>
      <point x="184" y="830" type="move" name="_topcap"/>
    </contour>
    <contour>
      <point x="129" y="960" type="line"/>
      <point x="20" y="851" type="line"/>
      <point x="65" y="851" type="line"/>
      <point x="184" y="905" type="line"/>
      <point x="303" y="851" type="line"/>
      <point x="348" y="851" type="line"/>
      <point x="239" y="960" type="line"/>
    </contour>
  </outline>
</glyph>
<glyph name="f_b" format="1">
  <advance width="1032"/>
  <outline>
    <contour>
      <point x="565" y="830" type="line"/>
      <point x="476" y="807" type="line"/>
      <point x="451" y="821"/>
      <point x="413" y="830"/>
      <point x="367" y="830" type="curve" smooth="yes"/>
      <point x="220" y="830"/>
      <point x="135" y="739"/>
      <point x="135" y="586" type="curve" smooth="yes"/>
      <point x="135" y="514" type="line"/>
      <point x="22" y="514" type="line"/>
      <point x="22" y="467" type="line"/>
      <point x="135" y="467" type="line"/>
      <point x="135" y="153" type="line" smooth="yes"/>
      <point x="135" y="52"/>
      <point x="126" y="35"/>
      <point x="49" y="35" type="curve"/>
      <point x="49" y="0" type="line"/>
      <point x="323" y="0" type="line"/>
      <point x="323" y="35" type="line"/>
      <point x="247" y="35"/>
      <point x="229" y="62"/>
      <point x="229" y="161" type="curve" smooth="yes"/>
      <point x="229" y="467" type="line"/>
      <point x="390" y="467" type="line"/>
      <point x="390" y="514" type="line"/>
      <point x="229" y="514" type="line"/>
      <point x="229" y="592" type="line" smooth="yes"/>
      <point x="229" y="748"/>
      <point x="264" y="782"/>
      <point x="337" y="782" type="curve" smooth="yes"/>
      <point x="373" y="782"/>
      <point x="400" y="771"/>
      <point x="447" y="730" type="curve" smooth="yes"/>
      <point x="469" y="711" type="line"/>
      <point x="469" y="0" type="line"/>
      <point x="491" y="0" type="line"/>
      <point x="538" y="67" type="line"/>
      <point x="580" y="19"/>
      <point x="651" y="-11"/>
      <point x="726" y="-11" type="curve" smooth="yes"/>
      <point x="872" y="-11"/>
      <point x="984" y="108"/>
      <point x="984" y="265" type="curve" smooth="yes"/>
      <point x="984" y="420"/>
      <point x="873" y="540"/>
      <point x="729" y="540" type="curve" smooth="yes"/>
      <point x="662" y="540"/>
      <point x="612" y="515"/>
      <point x="569" y="459" type="curve"/>
      <point x="565" y="459" type="line"/>
    </contour>
    <contour>
      <point x="567" y="298" type="line" smooth="yes"/>
      <point x="567" y="428"/>
      <point x="620" y="493"/>
      <point x="711" y="493" type="curve" smooth="yes"/>
      <point x="805" y="493"/>
      <point x="871" y="398"/>
      <point x="871" y="262" type="curve" smooth="yes"/>
      <point x="871" y="127"/>
      <point x="808" y="37"/>
      <point x="715" y="37" type="curve" smooth="yes"/>
      <point x="629" y="37"/>
      <point x="567" y="109"/>
      <point x="567" y="209" type="curve" smooth="yes"/>
    </contour>
  </outline>
</glyph>
<glyph name="f_h" format="1">
  <advance width="1047"/>
  <outline>
    <contour>
      <point x="567" y="287" type="line" smooth="yes"/>
      <point x="567" y="348"/>
      <point x="570" y="367"/>
      <point x="584" y="395" type="curve" smooth="yes"/>
      <point x="613" y="451"/>
      <point x="668" y="485"/>
      <point x="730" y="485" type="curve" smooth="yes"/>
      <point x="812" y="485"/>
      <point x="843" y="428"/>
      <point x="843" y="278" type="curve" smooth="yes"/>
      <point x="843" y="152" type="line" smooth="yes"/>
      <point x="843" y="51"/>
      <point x="835" y="35"/>
      <point x="759" y="35" type="curve"/>
      <point x="759" y="0" type="line"/>
      <point x="1024" y="0" type="line"/>
      <point x="1024" y="35" type="line"/>
      <point x="948" y="35"/>
      <point x="942" y="50"/>
      <point x="942" y="159" type="curve" smooth="yes"/>
      <point x="942" y="319" type="line" smooth="yes"/>
      <point x="942" y="404"/>
      <point x="932" y="451"/>
      <point x="909" y="481" type="curve" smooth="yes"/>
      <point x="881" y="517"/>
      <point x="826" y="540"/>
      <point x="765" y="540" type="curve" smooth="yes"/>
      <point x="692" y="540"/>
      <point x="610" y="502"/>
      <point x="569" y="449" type="curve"/>
      <point x="565" y="449" type="line"/>
      <point x="565" y="830" type="line"/>
      <point x="559" y="826" type="line"/>
      <point x="562" y="830" type="line"/>
      <point x="476" y="807" type="line"/>
      <point x="451" y="821"/>
      <point x="413" y="830"/>
      <point x="367" y="830" type="curve" smooth="yes"/>
      <point x="220" y="830"/>
      <point x="135" y="739"/>
      <point x="135" y="586" type="curve" smooth="yes"/>
      <point x="135" y="514" type="line"/>
      <point x="22" y="514" type="line"/>
      <point x="22" y="467" type="line"/>
      <point x="135" y="467" type="line"/>
      <point x="135" y="153" type="line" smooth="yes"/>
      <point x="135" y="52"/>
      <point x="125" y="35"/>
      <point x="49" y="35" type="curve"/>
      <point x="49" y="0" type="line"/>
      <point x="323" y="0" type="line"/>
      <point x="323" y="35" type="line"/>
      <point x="248" y="35"/>
      <point x="229" y="62"/>
      <point x="229" y="161" type="curve" smooth="yes"/>
      <point x="229" y="467" type="line"/>
      <point x="390" y="467" type="line"/>
      <point x="390" y="514" type="line"/>
      <point x="229" y="514" type="line"/>
      <point x="229" y="592" type="line" smooth="yes"/>
      <point x="229" y="748"/>
      <point x="264" y="782"/>
      <point x="337" y="782" type="curve" smooth="yes"/>
      <point x="373" y="782"/>
      <point x="400" y="771"/>
      <point x="447" y="730" type="curve" smooth="yes"/>
      <point x="469" y="711" type="line"/>
      <point x="469" y="152" type="line" smooth="yes"/>
      <point x="469" y="51"/>
      <point x="459" y="35"/>
      <point x="383" y="35" type="curve"/>
      <point x="383" y="0" type="line"/>
      <point x="649" y="0" type="line"/>
      <point x="649" y="35" type="line"/>
      <point x="574" y="35"/>
      <point x="567" y="49"/>
      <point x="567" y="159" type="curve" smooth="yes"/>
    </contour>
  </outline>
</glyph>
<glyph name="f_j" format="1">
  <advance width="638"/>
  <outline>
    <contour>
      <point x="547" y="540" type="line"/>
      <point x="386" y="513" type="line"/>
      <point x="226" y="513" type="line"/>
      <point x="226" y="592" type="line" smooth="yes"/>
      <point x="226" y="746"/>
      <point x="265" y="782"/>
      <point x="348" y="782" type="curve" smooth="yes"/>
      <point x="382" y="782"/>
      <point x="395" y="778"/>
      <point x="436" y="750" type="curve" smooth="yes"/>
      <point x="467" y="729"/>
      <point x="485" y="720"/>
      <point x="501" y="720" type="curve" smooth="yes"/>
      <point x="526" y="720"/>
      <point x="545" y="740"/>
      <point x="545" y="767" type="curve" smooth="yes"/>
      <point x="545" y="804"/>
      <point x="479" y="830"/>
      <point x="385" y="830" type="curve" smooth="yes"/>
      <point x="225" y="830"/>
      <point x="132" y="739"/>
      <point x="132" y="586" type="curve" smooth="yes"/>
      <point x="132" y="514" type="line"/>
      <point x="19" y="514" type="line"/>
      <point x="19" y="467" type="line"/>
      <point x="132" y="467" type="line"/>
      <point x="132" y="153" type="line" smooth="yes"/>
      <point x="132" y="52"/>
      <point x="123" y="35"/>
      <point x="56" y="35" type="curve"/>
      <point x="56" y="0" type="line"/>
      <point x="310" y="0" type="line"/>
      <point x="310" y="35" type="line"/>
      <point x="243" y="35"/>
      <point x="226" y="62"/>
      <point x="226" y="161" type="curve" smooth="yes"/>
      <point x="226" y="467" type="line"/>
      <point x="351" y="467" type="line" smooth="yes"/>
      <point x="418" y="467"/>
      <point x="435" y="458"/>
      <point x="442" y="427" type="curve" smooth="yes"/>
      <point x="446" y="409"/>
      <point x="449" y="357"/>
      <point x="449" y="280" type="curve" smooth="yes"/>
      <point x="449" y="-68" type="line" smooth="yes"/>
      <point x="449" y="-179"/>
      <point x="427" y="-217"/>
      <point x="363" y="-217" type="curve" smooth="yes"/>
      <point x="330" y="-217"/>
      <point x="319" y="-207"/>
      <point x="300" y="-167" type="curve" smooth="yes"/>
      <point x="280" y="-127"/>
      <point x="272" y="-120"/>
      <point x="248" y="-120" type="curve" smooth="yes"/>
      <point x="216" y="-120"/>
      <point x="197" y="-137"/>
      <point x="197" y="-167" type="curve" smooth="yes"/>
      <point x="197" y="-222"/>
      <point x="257" y="-260"/>
      <point x="342" y="-260" type="curve" smooth="yes"/>
      <point x="474" y="-260"/>
      <point x="547" y="-168"/>
      <point x="547" y="-2" type="curve" smooth="yes"/>
    </contour>
  </outline>
</glyph>
<glyph name="macron.cap" format="1">
  <advance width="310"/>
  <outline>
    <contour>
      <point x="155" y="830" type="move" name="_topcap"/>
    </contour>
    <contour>
      <point x="290" y="880" type="line"/>
      <point x="290" y="930" type="line"/>
      <point x="20" y="930" type="line"/>
      <point x="20" y="880" type="line"/>
    </contour>
  </outline>
</glyph>
<glyph name="s_p" format="1">
  <advance width="1088"/>
  <outline>
    <contour>
      <point x="106" y="35" type="line"/>
      <point x="142" y="6"/>
      <point x="188" y="-10"/>
      <point x="240" y="-10" type="curve" smooth="yes"/>
      <point x="341" y="-10"/>
      <point x="407" y="49"/>
      <point x="407" y="141" type="curve" smooth="yes"/>
      <point x="407" y="201"/>
      <point x="363" y="256"/>
      <point x="247" y="324" type="curve" smooth="yes"/>
      <point x="174" y="367"/>
      <point x="149" y="395"/>
      <point x="149" y="437" type="curve" smooth="yes"/>
      <point x="149" y="473"/>
      <point x="177" y="499"/>
      <point x="226" y="499" type="curve" smooth="yes"/>
      <point x="258" y="499"/>
      <point x="282" y="487"/>
      <point x="309" y="452" type="curve" smooth="yes"/>
      <point x="333" y="420"/>
      <point x="344" y="411"/>
      <point x="369" y="411" type="curve" smooth="yes"/>
      <point x="400" y="411"/>
      <point x="419" y="427"/>
      <point x="419" y="453" type="curve" smooth="yes"/>
      <point x="419" y="479"/>
      <point x="401" y="504"/>
      <point x="370" y="520" type="curve" smooth="yes"/>
      <point x="311" y="550"/>
      <point x="283" y="578"/>
      <point x="283" y="626" type="curve" smooth="yes"/>
      <point x="283" y="692"/>
      <point x="334" y="740"/>
      <point x="401" y="740" type="curve" smooth="yes"/>
      <point x="465" y="740"/>
      <point x="510" y="696"/>
      <point x="568" y="676" type="curve"/>
      <point x="544" y="615"/>
      <point x="526" y="551"/>
      <point x="526" y="450" type="curve" smooth="yes"/>
      <point x="526" y="-97" type="line" smooth="yes"/>
      <point x="526" y="-193"/>
      <point x="511" y="-215"/>
      <point x="430" y="-215" type="curve"/>
      <point x="430" y="-250" type="line"/>
      <point x="738" y="-250" type="line"/>
      <point x="738" y="-215" type="line"/>
      <point x="639" y="-215"/>
      <point x="624" y="-196"/>
      <point x="624" y="-90" type="curve" smooth="yes"/>
      <point x="624" y="56" type="line"/>
      <point x="666" y="11"/>
      <point x="714" y="-10"/>
      <point x="778" y="-10" type="curve" smooth="yes"/>
      <point x="930" y="-10"/>
      <point x="1040" y="105"/>
      <point x="1040" y="263" type="curve" smooth="yes"/>
      <point x="1040" y="421"/>
      <point x="930" y="540"/>
      <point x="784" y="540" type="curve" smooth="yes"/>
      <point x="719" y="540"/>
      <point x="674" y="517"/>
      <point x="624" y="458" type="curve"/>
      <point x="620" y="458" type="line"/>
      <point x="620" y="673" type="line"/>
      <point x="656" y="673"/>
      <point x="690" y="701"/>
      <point x="690" y="733" type="curve" smooth="yes"/>
      <point x="690" y="759"/>
      <point x="667" y="778"/>
      <point x="637" y="778" type="curve" smooth="yes"/>
      <point x="607" y="778"/>
      <point x="588" y="758"/>
      <point x="579" y="713" type="curve"/>
      <point x="539" y="725"/>
      <point x="488" y="790"/>
      <point x="402" y="790" type="curve" smooth="yes"/>
      <point x="309" y="790"/>
      <point x="233" y="716"/>
      <point x="233" y="624" type="curve" smooth="yes"/>
      <point x="233" y="594"/>
      <point x="241" y="568"/>
      <point x="258" y="546" type="curve"/>
      <point x="251" y="546" type="line" smooth="yes"/>
      <point x="136" y="546"/>
      <point x="67" y="485"/>
      <point x="67" y="401" type="curve" smooth="yes"/>
      <point x="67" y="330"/>
      <point x="93" y="292"/>
      <point x="202" y="222" type="curve" smooth="yes"/>
      <point x="300" y="159"/>
      <point x="318" y="135"/>
      <point x="318" y="93" type="curve" smooth="yes"/>
      <point x="318" y="56"/>
      <point x="287" y="31"/>
      <point x="232" y="31" type="curve" smooth="yes"/>
      <point x="161" y="31"/>
      <point x="114" y="78"/>
      <point x="89" y="172" type="curve"/>
      <point x="64" y="172" type="line"/>
      <point x="64" y="0" type="line"/>
      <point x="86" y="0" type="line"/>
    </contour>
    <contour>
      <point x="650" y="429" type="curve" smooth="yes"/>
      <point x="676" y="470"/>
      <point x="721" y="492"/>
      <point x="767" y="492" type="curve" smooth="yes"/>
      <point x="863" y="492"/>
      <point x="927" y="399"/>
      <point x="927" y="260" type="curve" smooth="yes"/>
      <point x="927" y="126"/>
      <point x="867" y="39"/>
      <point x="775" y="39" type="curve" smooth="yes"/>
      <point x="727" y="39"/>
      <point x="684" y="62"/>
      <point x="651" y="106" type="curve" smooth="yes"/>
      <point x="629" y="135"/>
      <point x="624" y="157"/>
      <point x="624" y="232" type="curve" smooth="yes"/>
      <point x="624" y="310" type="line" smooth="yes"/>
      <point x="624" y="364"/>
      <point x="632" y="400"/>
    </contour>
  </outline>
</glyph>
